# Blender v2.66 (sub 1) OBJ File: 'tree_1.blend'
# www.blender.org
mtllib tree_3_top.mtl
o Icosphere
v 0.000000 2.851275 0.000000
v 1.737728 4.259527 1.199173
v -0.690256 4.333641 1.961010
v -1.910067 4.445337 -0.120483
v -0.565320 4.485005 -1.739905
v 1.480055 4.485006 -1.075310
v 0.461914 7.289423 1.936979
v -1.143979 7.142199 0.897489
v -1.558355 7.106386 -1.202939
v 0.622882 7.211694 -1.876463
v 1.829445 7.128489 0.000000
v 0.064198 8.055202 0.184754
v 1.040524 3.867390 0.558022
v 0.418961 4.316341 1.132502
v -0.332284 3.292663 1.022683
v 0.881786 3.694840 -0.529296
v 1.645674 4.433366 -0.064197
v -1.426274 4.964485 1.010069
v -1.075320 3.292671 0.000000
v -1.407612 4.252952 -1.022686
v -0.332284 3.292663 -1.022683
v 0.396490 4.576848 -1.427441
v 1.945279 5.806753 -0.632050
v 2.082124 5.447798 0.511489
v 1.277252 5.320232 1.583107
v 0.014489 5.767987 1.956136
v -1.202248 5.806753 1.654750
v -1.649028 6.118039 0.423866
v -2.139986 5.757133 -0.657289
v -1.714540 6.082168 -2.187149
v -0.074586 5.723132 -2.360184
v 1.162610 5.717794 -2.046040
v 1.396184 7.284708 1.136668
v -0.602678 7.792739 1.737661
v -1.739902 7.360554 0.000000
v -0.978660 7.441758 -1.630343
v 1.217509 7.611027 -1.006827
v 0.912448 8.135358 0.286792
v 0.250337 8.003115 0.670604
v -0.758117 7.913568 0.448312
v -0.573323 7.637709 -0.163680
v 0.424797 8.028131 -1.317193
vt 0.882029 0.672162
vt 0.738868 0.636801
vt 0.885400 0.561698
vt 0.385442 0.817602
vt 0.311727 0.817648
vt 0.333712 0.710865
vt 0.972536 0.605200
vt 0.650143 0.493948
vt 0.643306 0.612316
vt 0.556869 0.547044
vt 0.556061 0.406209
vt 0.461317 0.000000
vt 0.542038 0.119176
vt 0.443724 0.098943
vt 0.864428 0.438523
vt 0.777701 0.538272
vt 0.758898 0.381523
vt 0.234041 0.115780
vt 0.260538 0.252922
vt 0.146362 0.227183
vt 0.442962 0.589658
vt 0.521529 0.668574
vt 0.349674 0.710419
vt 0.458201 0.360095
vt 0.445079 0.482269
vt 0.311727 0.410378
vt 0.381059 0.042324
vt 0.880051 0.360279
vt 0.117840 0.108883
vt 0.332029 0.550373
vt 0.621859 0.184466
vt 0.644982 0.338165
vt 0.511214 0.204536
vt 0.184697 0.519158
vt 0.271190 0.608611
vt 0.137451 0.641241
vt 0.094284 0.324375
vt 0.090669 0.436131
vt 0.020756 0.313860
vt 0.869358 0.220511
vt 0.906459 0.107663
vt 0.980383 0.197423
vt 0.753489 0.134639
vt 0.735922 0.303071
vt 0.645275 0.159679
vt 0.311727 0.721897
vt 0.229778 0.836042
vt 0.198760 0.697781
vt 0.650143 0.592882
vt 0.645275 0.117890
vt 0.545385 0.036811
vt 0.778567 0.724931
vt 0.311656 0.118167
vt 0.953308 0.430384
vt 0.584738 0.710865
vt 0.393915 0.230669
vt 0.655290 0.495209
vt 0.676322 0.360095
vt 0.224225 0.347427
vt 0.311727 0.334433
vt 0.027559 0.000000
vt 0.000000 0.108078
vt 0.199537 0.041289
vt 0.869358 0.055206
vt 0.869184 0.196319
vt 0.311696 0.505747
vt 0.311727 0.178727
vt 0.241323 0.425971
vt 0.175559 0.436131
vt 0.066244 0.509957
vt 0.042810 0.223037
vt 0.847884 0.358685
vt 0.738019 0.360095
vt 0.449525 0.360095
vt 0.674660 0.055756
vt 0.100706 0.699460
vt 0.031937 0.638861
vt 0.580264 0.775422
vt 0.585552 0.710865
vt 0.650143 0.717460
vt 0.998289 0.136217
vt 0.999779 0.051329
vt 0.650040 0.858663
vt 1.000000 0.360095
vt 0.888629 0.298233
vt 0.120456 0.844504
vn 0.174017 -0.984710 0.005951
vn 0.502548 -0.809564 0.303323
vn -0.096103 -0.759758 0.643025
vn 0.610034 -0.568957 0.551469
vn 0.841762 -0.523362 -0.132328
vn -0.656514 -0.751610 0.063387
vn -0.053957 -0.759056 -0.648762
vn 0.589953 -0.720420 -0.364513
vn 0.981506 -0.041963 0.186621
vn -0.240211 -0.441603 0.864437
vn 0.303873 -0.481429 0.822108
vn 0.057009 -0.094455 0.993866
vn -0.925718 -0.365917 0.095462
vn -0.871578 -0.218543 0.438826
vn -0.905423 0.090548 0.414686
vn -0.098483 -0.522141 -0.847133
vn -0.683218 -0.520676 -0.511887
vn -0.633564 0.061830 -0.771203
vn 0.666982 -0.525864 -0.527787
vn 0.282723 -0.542405 -0.791101
vn 0.566729 -0.112980 -0.816095
vn 0.464003 -0.131565 0.875973
vn -0.698050 0.067904 0.712790
vn -0.999481 -0.019379 -0.024628
vn 0.065981 -0.121830 -0.990326
vn 0.950316 0.008911 -0.311045
vn 0.289468 0.422101 0.859066
vn 0.699820 0.483413 0.525834
vn 0.070986 0.946928 0.313456
vn -0.834437 0.363659 0.413984
vn -0.369335 0.664571 0.649525
vn -0.434187 0.900235 -0.032136
vn -0.734428 0.631886 -0.247597
vn -0.777490 0.616169 0.125828
vn -0.362194 0.896878 -0.253792
vn 0.320811 0.427992 -0.844905
vn -0.376720 0.747307 -0.547349
vn 0.088076 0.883053 -0.460891
vn 0.911130 0.411115 -0.027650
vn 0.716056 0.569536 -0.403546
vn 0.363872 0.913266 0.182989
vn -0.220099 0.974792 -0.035615
usemtl leaves
s 1
f 1/1/1 13/2/2 15/3/3
f 2/4/4 13/5/2 17/6/5
f 1/1/1 15/3/3 19/7/6
f 1/8/1 19/9/6 21/10/7
f 1/8/1 21/10/7 16/11/8
f 2/12/4 17/13/5 24/14/9
f 3/15/10 14/16/11 26/17/12
f 4/18/13 18/19/14 28/20/15
f 5/21/16 20/22/17 30/23/18
f 6/24/19 22/25/20 32/26/21
f 2/12/4 24/14/9 25/27/22
f 3/15/10 26/17/12 27/28/23
f 4/18/13 28/20/15 29/29/24
f 5/21/16 30/23/18 31/30/25
f 6/31/19 32/32/21 23/33/26
f 7/34/27 33/35/28 39/36/29
f 8/37/30 34/38/31 40/39/32
f 9/40/33 35/41/34 41/42/35
f 10/43/36 36/44/37 42/45/38
f 11/46/39 37/47/40 38/48/41
f 15/3/3 14/16/11 3/15/10
f 15/3/3 13/2/2 14/16/11
f 13/2/2 2/49/4 14/16/11
f 17/13/5 16/50/8 6/31/19
f 17/13/5 13/51/2 16/50/8
f 13/2/2 1/1/1 16/52/8
f 19/53/6 18/19/14 4/18/13
f 19/7/6 15/3/3 18/54/14
f 15/3/3 3/15/10 18/54/14
f 21/10/7 20/22/17 5/21/16
f 21/10/7 19/9/6 20/22/17
f 19/9/6 4/55/13 20/22/17
f 16/11/8 22/25/20 6/24/19
f 16/11/8 21/10/7 22/25/20
f 21/10/7 5/21/16 22/25/20
f 24/14/9 23/33/26 11/56/39
f 24/14/9 17/13/5 23/33/26
f 17/13/5 6/31/19 23/33/26
f 26/17/12 25/57/22 7/58/27
f 26/17/12 14/16/11 25/57/22
f 14/16/11 2/49/4 25/57/22
f 28/20/15 27/59/23 8/37/30
f 28/20/15 18/19/14 27/59/23
f 18/19/14 3/60/10 27/59/23
f 30/61/18 29/29/24 9/62/33
f 30/61/18 20/63/17 29/29/24
f 20/63/17 4/18/13 29/29/24
f 32/64/21 31/65/25 10/43/36
f 32/26/21 22/25/20 31/30/25
f 22/25/20 5/21/16 31/30/25
f 25/66/22 33/35/28 7/34/27
f 25/27/22 24/14/9 33/67/28
f 24/14/9 11/56/39 33/67/28
f 27/59/23 34/38/31 8/37/30
f 27/59/23 26/68/12 34/38/31
f 26/69/12 7/34/27 34/70/31
f 29/29/24 35/71/34 9/62/33
f 29/29/24 28/20/15 35/71/34
f 28/20/15 8/37/30 35/71/34
f 31/65/25 36/44/37 10/43/36
f 31/65/25 30/72/18 36/44/37
f 30/72/18 9/73/33 36/44/37
f 23/33/26 37/74/40 11/56/39
f 23/33/26 32/32/21 37/74/40
f 32/64/21 10/43/36 37/75/40
f 39/36/29 38/48/41 12/76/42
f 39/36/29 33/35/28 38/48/41
f 33/35/28 11/46/39 38/48/41
f 40/77/32 39/36/29 12/76/42
f 40/77/32 34/70/31 39/36/29
f 34/70/31 7/34/27 39/36/29
f 41/78/35 40/79/32 12/80/42
f 41/42/35 35/41/34 40/81/32
f 35/41/34 8/82/30 40/81/32
f 42/83/38 41/78/35 12/80/42
f 42/84/38 36/85/37 41/42/35
f 36/85/37 9/40/33 41/42/35
f 38/48/41 42/86/38 12/76/42
f 38/48/41 37/47/40 42/86/38
f 37/75/40 10/43/36 42/45/38
