# Blender v2.66 (sub 0) OBJ File: 'windmill.blend'
# www.blender.org
mtllib windmill_blades.mtl
o Cylinder.002_Cylinder.003
v 0.080020 5.999167 0.327592
v 0.080020 5.999167 0.308258
v -0.049029 5.985034 0.308258
v -0.049029 5.985034 0.327592
v 0.266113 3.516636 0.335541
v 0.266113 3.516636 0.300309
v 0.201229 3.509529 0.300309
v 0.201229 3.509529 0.335541
v 0.326117 5.453559 0.300309
v 0.326117 5.453560 0.335541
v -0.040124 5.413447 0.300309
v -0.040124 5.413447 0.335541
v 0.296115 4.485098 0.335541
v 0.296115 4.485098 0.300309
v 0.064335 4.459712 0.300309
v 0.064335 4.459712 0.335541
v 0.099426 4.439017 0.335541
v 0.099426 4.439017 0.300309
v 0.295352 4.460476 0.300309
v 0.295352 4.460476 0.335541
v -0.168132 6.135499 0.327592
v -0.168132 6.135499 0.308258
v -0.115848 6.254326 0.308258
v -0.115848 6.254326 0.327592
v -2.411113 7.215606 0.335541
v -2.411113 7.215606 0.300309
v -2.384825 7.275351 0.300309
v -2.384825 7.275351 0.335541
v -0.763690 6.195178 0.300309
v -0.763690 6.195178 0.335541
v -0.615308 6.532407 0.300309
v -0.615308 6.532407 0.335541
v -1.587402 6.705392 0.335541
v -1.587402 6.705392 0.300309
v -1.493496 6.918812 0.300309
v -1.493496 6.918812 0.335541
v -1.528964 6.898769 0.335541
v -1.528964 6.898769 0.300309
v -1.608343 6.718363 0.300309
v -1.608343 6.718364 0.335541
v 0.087563 6.259974 0.327592
v 0.087563 6.259974 0.308258
v 0.173161 6.162371 0.308258
v 0.173161 6.162371 0.327592
v 2.014397 7.836333 0.335541
v 2.014397 7.836332 0.300309
v 2.057434 7.787259 0.300309
v 2.057434 7.787259 0.335541
v 0.393344 6.774513 0.300309
v 0.393344 6.774513 0.335541
v 0.636269 6.497513 0.300309
v 0.636269 6.497513 0.335541
v 1.203870 7.305423 0.335541
v 1.203871 7.305423 0.300309
v 1.357609 7.130120 0.300309
v 1.357609 7.130120 0.335541
v 1.354434 7.170735 0.335541
v 1.354434 7.170735 0.300309
v 1.224477 7.318920 0.300309
v 1.224477 7.318920 0.335541
v 0.146334 6.236499 0.271744
v -0.000000 6.108166 0.618419
v 0.184306 6.170731 0.271744
v 0.194219 6.095438 0.271744
v 0.174564 6.022082 0.271744
v 0.128333 5.961833 0.271744
v 0.062565 5.923861 0.271744
v -0.012728 5.913948 0.271744
v -0.086084 5.933602 0.271744
v -0.146334 5.979833 0.271744
v -0.184306 6.045601 0.271744
v -0.194219 6.120895 0.271744
v -0.174564 6.194250 0.271744
v -0.128333 6.254500 0.271744
v -0.062565 6.292472 0.271744
v 0.012729 6.302385 0.271744
v 0.086084 6.282730 0.271744
v 0.111359 6.205826 0.499568
v 0.140255 6.155777 0.499568
v 0.147798 6.098480 0.499568
v 0.132841 6.042657 0.499568
v 0.097660 5.996808 0.499568
v 0.047611 5.967911 0.499568
v -0.009686 5.960368 0.499568
v -0.065509 5.975325 0.499568
v -0.111358 6.010506 0.499568
v -0.140255 6.060555 0.499568
v -0.147799 6.117852 0.499568
v -0.132841 6.173675 0.499568
v -0.097660 6.219525 0.499568
v -0.047611 6.248421 0.499568
v 0.009686 6.255965 0.499568
v 0.065509 6.241007 0.499568
v 0.180988 6.169605 0.418161
v 0.190723 6.095667 0.418161
v 0.171422 6.023632 0.418160
v 0.126023 5.964467 0.418160
v 0.061439 5.927178 0.418160
v -0.012499 5.917444 0.418160
v -0.084534 5.936745 0.418160
v -0.143700 5.982143 0.418160
v -0.180988 6.046728 0.418160
v -0.190723 6.120666 0.418160
v -0.171421 6.192700 0.418160
v -0.126023 6.251866 0.418160
v -0.061438 6.289155 0.418160
v 0.012499 6.298889 0.418161
v 0.084534 6.279588 0.418161
v 0.143700 6.234189 0.418161
v 0.184925 6.170941 0.377460
v 0.194871 6.095395 0.377460
v 0.175150 6.021793 0.377460
v 0.128764 5.961341 0.377460
v 0.062775 5.923241 0.377460
v -0.012771 5.913295 0.377460
v -0.086373 5.933016 0.377460
v -0.146825 5.979402 0.377460
v -0.184925 6.045391 0.377460
v -0.194871 6.120937 0.377460
v -0.175150 6.194540 0.377460
v -0.128764 6.254992 0.377460
v -0.062775 6.293091 0.377460
v 0.012771 6.303038 0.377460
v 0.086373 6.283317 0.377460
v 0.146826 6.236930 0.377460
vn 0.735160 0.149876 0.661061
vn 0.735160 0.149876 -0.661092
vn 0.398053 0.701712 -0.590838
vn -0.714774 -0.040010 -0.698172
vn -0.610462 0.541642 -0.577837
vn -0.714774 -0.040010 0.698172
vn -0.610462 0.541642 0.577837
vn 0.398053 0.701712 0.590838
vn -0.511032 -0.636769 0.577349
vn -0.511032 -0.636769 -0.577349
vn 0.595386 -0.550615 -0.585070
vn 0.706748 -0.021882 0.707083
vn 0.706748 -0.021882 -0.707083
vn -0.659841 -0.426221 -0.618824
vn -0.659841 -0.426221 0.618793
vn -0.477065 -0.308145 -0.823054
vn -0.477065 -0.308145 0.823054
vn 0.595386 -0.550615 0.585070
vn -0.237770 -0.711600 0.661092
vn -0.237770 -0.711600 -0.661092
vn 0.408673 -0.695578 0.590838
vn 0.322703 0.639027 -0.698172
vn 0.408673 -0.695578 -0.590838
vn 0.322703 0.639027 0.698172
vn 0.774316 0.257851 0.577837
vn 0.774316 0.257851 -0.577837
vn -0.295907 0.760979 0.577349
vn -0.295907 0.760979 -0.577349
vn -0.774529 -0.240303 0.585070
vn -0.372326 -0.601123 0.707083
vn -0.372326 -0.601123 -0.707083
vn -0.039186 0.784539 -0.618793
vn -0.039186 0.784539 0.618793
vn -0.028321 0.567217 -0.823054
vn -0.028321 0.567217 0.823054
vn -0.774529 -0.240303 -0.585070
vn -0.544450 0.516221 0.661092
vn -0.544450 0.516221 -0.661092
vn -0.803125 -0.076388 0.590838
vn 0.442763 -0.562548 -0.698172
vn -0.093539 -0.810755 -0.577837
vn 0.442763 -0.562548 0.698172
vn -0.093539 -0.810755 0.577837
vn -0.803125 -0.076388 -0.590838
vn 0.814722 -0.053377 0.577319
vn 0.814722 -0.053377 -0.577349
vn 0.109500 0.803522 -0.585070
vn -0.387432 0.591510 0.707083
vn -0.387432 0.591510 -0.707083
vn 0.727592 -0.296030 -0.618793
vn 0.727592 -0.296030 0.618824
vn 0.526078 -0.214026 -0.823054
vn 0.526048 -0.214026 0.823054
vn 0.109500 0.803522 0.585040
vn 0.559465 0.490646 -0.667989
vn 0.704642 0.239204 -0.667989
vn 0.329112 0.667409 -0.667989
vn 0.721000 0.632313 0.283364
vn 0.587085 0.514847 0.624653
vn 0.739433 0.250984 0.624653
vn 0.908109 0.308267 0.283364
vn 0.779199 -0.051057 0.624653
vn 0.956938 -0.062716 0.283364
vn 0.700339 -0.345347 0.624653
vn 0.860103 -0.424146 0.283364
vn 0.514847 -0.587085 0.624653
vn 0.632313 -0.721000 0.283334
vn 0.308267 -0.908109 0.283364
vn 0.250984 -0.739433 0.624653
vn -0.062685 -0.956938 0.283364
vn -0.051057 -0.779199 0.624653
vn -0.424146 -0.860103 0.283364
vn -0.345347 -0.700339 0.624653
vn -0.587085 -0.514847 0.624653
vn -0.721000 -0.632313 0.283364
vn -0.908109 -0.308267 0.283364
vn -0.739433 -0.250984 0.624653
vn -0.956938 0.062716 0.283364
vn -0.779199 0.051057 0.624653
vn -0.860103 0.424146 0.283364
vn -0.700339 0.345347 0.624653
vn -0.514878 0.587085 0.624653
vn -0.632313 0.721000 0.283334
vn -0.308267 0.908109 0.283334
vn -0.250984 0.739433 0.624653
vn 0.051057 0.779199 0.624653
vn 0.424146 0.860103 0.283364
vn 0.345347 0.700339 0.624653
vn 0.062716 0.956938 0.283364
vn 0.000000 0.000000 0.999969
vn 0.750969 0.658589 0.047456
vn 0.945860 0.321055 0.047456
vn 0.996704 -0.065310 0.047456
vn 0.895840 -0.441755 0.047456
vn 0.658589 -0.750969 0.047456
vn 0.321055 -0.945830 0.047456
vn -0.065310 -0.996704 0.047456
vn -0.441755 -0.895840 0.047456
vn -0.750969 -0.658589 0.047456
vn -0.945830 -0.321055 0.047456
vn -0.996734 0.065310 0.047456
vn -0.895840 0.441755 0.047456
vn -0.658589 0.750969 0.047456
vn -0.321055 0.945860 0.047456
vn 0.441755 0.895840 0.047456
vn 0.065310 0.996734 0.047456
vn 0.742546 -0.048647 -0.667989
vn 0.667409 -0.329112 -0.667989
vn 0.490646 -0.559465 -0.667989
vn 0.239204 -0.704642 -0.667989
vn -0.048647 -0.742546 -0.667989
vn -0.329112 -0.667409 -0.667989
vn -0.559465 -0.490646 -0.667989
vn -0.704642 -0.239204 -0.667989
vn -0.742546 0.048647 -0.667989
vn -0.667409 0.329112 -0.667989
vn -0.490646 0.559465 -0.667989
vn -0.239204 0.704642 -0.667989
vn 0.048647 0.742546 -0.667989
usemtl PLAIN
s 1
f 10//1 9//2 2//3
f 9//2 11//4 3//5
f 11//4 12//6 3//5
f 12//6 10//1 4//7
f 1//8 2//3 4//7
f 8//9 7//10 6//11
f 13//12 14//13 9//2
f 14//13 15//14 9//2
f 15//14 16//15 11//4
f 16//15 13//12 10//1
f 20//12 19//13 14//13
f 19//13 18//16 14//13
f 18//16 17//17 16//15
f 17//17 20//12 16//15
f 6//11 7//10 19//13
f 8//9 5//18 20//12
f 7//10 8//9 17//17
f 5//18 6//11 19//13
f 30//19 29//20 21//21
f 29//20 31//22 22//23
f 31//22 32//24 24//25
f 32//24 30//19 21//21
f 21//21 22//23 23//26
f 28//27 27//28 25//29
f 33//30 34//31 30//19
f 34//31 35//32 31//22
f 35//32 36//33 32//24
f 36//33 33//30 30//19
f 40//30 39//31 34//31
f 39//31 38//34 34//31
f 38//34 37//35 35//32
f 37//35 40//30 33//30
f 26//36 27//28 39//31
f 28//27 25//29 37//35
f 27//28 28//27 37//35
f 25//29 26//36 40//30
f 50//37 49//38 41//39
f 49//38 51//40 43//41
f 51//40 52//42 44//43
f 52//42 50//37 44//43
f 41//39 42//44 44//43
f 48//45 47//46 46//47
f 53//48 54//49 50//37
f 54//49 55//50 49//38
f 55//50 56//51 52//42
f 56//51 53//48 52//42
f 60//48 59//49 53//48
f 59//49 58//52 55//50
f 58//52 57//53 56//51
f 57//53 60//48 53//48
f 46//47 47//46 59//49
f 48//45 45//54 57//53
f 47//46 48//45 57//53
f 45//54 46//47 60//48
f 61//55 63//56 77//57
f 109//58 78//59 79//60
f 94//61 79//60 80//62
f 95//63 80//62 81//64
f 96//65 81//64 82//66
f 97//67 82//66 98//68
f 98//68 83//69 99//70
f 99//70 84//71 100//72
f 100//72 85//73 86//74
f 101//75 86//74 102//76
f 102//76 87//77 103//78
f 103//78 88//79 104//80
f 104//80 89//81 90//82
f 105//83 90//82 106//84
f 106//84 91//85 92//86
f 108//87 93//88 78//59
f 107//89 92//86 108//87
f 91//85 62//90 92//86
f 84//71 62//90 85//73
f 82//66 62//90 83//69
f 89//81 62//90 90//82
f 87//77 62//90 88//79
f 93//88 62//90 78//59
f 80//62 62//90 81//64
f 78//59 62//90 79//60
f 85//73 62//90 86//74
f 83//69 62//90 84//71
f 90//82 62//90 91//85
f 88//79 62//90 89//81
f 92//86 62//90 93//88
f 81//64 62//90 82//66
f 79//60 62//90 80//62
f 86//74 62//90 87//77
f 125//91 109//58 110//92
f 110//92 94//61 111//93
f 111//93 95//63 112//94
f 112//94 96//65 113//95
f 113//95 97//67 98//68
f 114//96 98//68 99//70
f 115//97 99//70 100//72
f 116//98 100//72 101//75
f 117//99 101//75 102//76
f 118//100 102//76 103//78
f 119//101 103//78 120//102
f 120//102 104//80 121//103
f 121//103 105//83 122//104
f 122//104 106//84 107//89
f 124//105 108//87 125//91
f 123//106 107//89 108//87
f 61//55 125//91 110//92
f 63//56 110//92 111//93
f 64//107 111//93 112//94
f 65//108 112//94 113//95
f 66//109 113//95 114//96
f 67//110 114//96 115//97
f 68//111 115//97 69//112
f 69//112 116//98 70//113
f 70//113 117//99 71//114
f 71//114 118//100 72//115
f 72//115 119//101 73//116
f 73//116 120//102 121//103
f 74//117 121//103 122//104
f 75//118 122//104 76//119
f 77//57 124//105 125//91
f 76//119 123//106 124//105
f 1//8 10//1 2//3
f 2//3 9//2 3//5
f 12//6 4//7 3//5
f 10//1 1//8 4//7
f 2//3 3//5 4//7
f 5//18 8//9 6//11
f 10//1 13//12 9//2
f 15//14 11//4 9//2
f 16//15 12//6 11//4
f 12//6 16//15 10//1
f 13//12 20//12 14//13
f 18//16 15//14 14//13
f 15//14 18//16 16//15
f 20//12 13//12 16//15
f 7//10 18//16 19//13
f 17//17 8//9 20//12
f 18//16 7//10 17//17
f 20//12 5//18 19//13
f 29//20 22//23 21//21
f 31//22 23//26 22//23
f 23//26 31//22 24//25
f 24//25 32//24 21//21
f 24//25 21//21 23//26
f 27//28 26//36 25//29
f 34//31 29//20 30//19
f 29//20 34//31 31//22
f 31//22 35//32 32//24
f 32//24 36//33 30//19
f 33//30 40//30 34//31
f 38//34 35//32 34//31
f 37//35 36//33 35//32
f 36//33 37//35 33//30
f 27//28 38//34 39//31
f 25//29 40//30 37//35
f 38//34 27//28 37//35
f 26//36 39//31 40//30
f 49//38 42//44 41//39
f 42//44 49//38 43//41
f 43//41 51//40 44//43
f 50//37 41//39 44//43
f 42//44 43//41 44//43
f 45//54 48//45 46//47
f 54//49 49//38 50//37
f 55//50 51//40 49//38
f 51//40 55//50 52//42
f 53//48 50//37 52//42
f 59//49 54//49 53//48
f 54//49 59//49 55//50
f 55//50 58//52 56//51
f 56//51 57//53 53//48
f 47//46 58//52 59//49
f 45//54 60//48 57//53
f 58//52 47//46 57//53
f 46//47 59//49 60//48
f 63//56 64//107 77//57
f 64//107 65//108 77//57
f 65//108 66//109 77//57
f 66//109 67//110 77//57
f 67//110 68//111 77//57
f 68//111 69//112 77//57
f 69//112 70//113 77//57
f 70//113 71//114 77//57
f 71//114 72//115 77//57
f 72//115 73//116 77//57
f 73//116 74//117 77//57
f 74//117 75//118 77//57
f 75//118 76//119 77//57
f 94//61 109//58 79//60
f 95//63 94//61 80//62
f 96//65 95//63 81//64
f 97//67 96//65 82//66
f 82//66 83//69 98//68
f 83//69 84//71 99//70
f 84//71 85//73 100//72
f 101//75 100//72 86//74
f 86//74 87//77 102//76
f 87//77 88//79 103//78
f 88//79 89//81 104//80
f 105//83 104//80 90//82
f 90//82 91//85 106//84
f 107//89 106//84 92//86
f 109//58 108//87 78//59
f 92//86 93//88 108//87
f 109//58 94//61 110//92
f 94//61 95//63 111//93
f 95//63 96//65 112//94
f 96//65 97//67 113//95
f 114//96 113//95 98//68
f 115//97 114//96 99//70
f 116//98 115//97 100//72
f 117//99 116//98 101//75
f 118//100 117//99 102//76
f 119//101 118//100 103//78
f 103//78 104//80 120//102
f 104//80 105//83 121//103
f 105//83 106//84 122//104
f 123//106 122//104 107//89
f 108//87 109//58 125//91
f 124//105 123//106 108//87
f 63//56 61//55 110//92
f 64//107 63//56 111//93
f 65//108 64//107 112//94
f 66//109 65//108 113//95
f 67//110 66//109 114//96
f 68//111 67//110 115//97
f 115//97 116//98 69//112
f 116//98 117//99 70//113
f 117//99 118//100 71//114
f 118//100 119//101 72//115
f 119//101 120//102 73//116
f 74//117 73//116 121//103
f 75//118 74//117 122//104
f 122//104 123//106 76//119
f 61//55 77//57 125//91
f 77//57 76//119 124//105
