# Blender v2.66 (sub 0) OBJ File: 'windmill.blend'
# www.blender.org
mtllib windmill_base.mtl
o Cylinder_Cylinder.001
v -0.242753 5.858713 0.271266
v -0.242753 5.858713 -0.214239
v 0.242753 5.858713 -0.214239
v 0.242753 5.858713 0.271266
v -0.242753 6.344218 0.271266
v -0.242753 6.344218 -0.214239
v 0.242753 6.344218 -0.214239
v 0.242753 6.344218 0.271266
v -0.242753 5.982250 -0.250000
v 0.242753 5.982250 -0.250000
v -0.242753 6.344218 -0.250000
v 0.242753 6.344218 -0.250000
v -0.242753 6.076796 -0.646620
v 0.242753 6.076796 -0.646620
v -0.242753 6.344218 -0.646620
v 0.242753 6.344218 -0.646620
v -0.242753 6.294423 -0.214239
v -0.242753 6.294423 0.271266
v 0.242753 6.294423 -0.214239
v 0.242753 6.294423 0.271266
v -0.242753 6.307093 -0.250000
v 0.242753 6.307093 -0.250000
v -0.242753 6.316790 -0.646620
v 0.242753 6.316790 -0.646620
v -0.242753 6.021231 -0.250000
v 0.242753 5.910998 0.271266
v 0.242753 5.910998 -0.214239
v -0.242753 5.910998 -0.214239
v -0.242753 5.910998 0.271266
v 0.242753 6.105595 -0.646620
v -0.242753 6.105595 -0.646620
v 0.242753 6.021231 -0.250000
v -0.242753 6.344218 0.271266
v -0.242753 5.858713 0.271266
v 0.242753 6.344218 0.271266
v 0.242753 5.858713 0.271266
v -0.242753 6.294423 0.271266
v 0.242753 6.294423 0.271266
v 0.242753 5.910998 0.271266
v -0.242753 5.910998 0.271266
v -0.242753 6.068933 -0.613633
v 0.242753 6.068933 -0.613633
v -0.242753 6.344218 -0.613633
v 0.242753 6.344218 -0.613633
v -0.242753 6.315984 -0.613633
v 0.242753 6.315984 -0.613633
v -0.242753 6.098578 -0.613633
v 0.242753 6.098578 -0.613633
v -0.000000 -0.075836 -0.214584
v 0.000000 5.869580 -0.111118
v 0.082118 -0.075836 -0.198250
v 0.042523 5.869580 -0.102659
v 0.151734 -0.075836 -0.151734
v 0.078572 5.869580 -0.078572
v 0.198250 -0.075836 -0.082118
v 0.102659 5.869580 -0.042523
v 0.214584 -0.075836 0.000000
v 0.111118 5.869580 0.000000
v 0.198250 -0.075836 0.082118
v 0.102659 5.869580 0.042523
v 0.151734 -0.075836 0.151734
v 0.078572 5.869580 0.078572
v 0.082118 -0.075836 0.198250
v 0.042523 5.869580 0.102659
v 0.000000 -0.075836 0.214584
v 0.000000 5.869580 0.111118
v -0.082118 -0.075836 0.198250
v -0.042523 5.869580 0.102659
v -0.151734 -0.075836 0.151734
v -0.078572 5.869580 0.078572
v -0.198250 -0.075836 0.082118
v -0.102659 5.869580 0.042523
v -0.214584 -0.075836 -0.000000
v -0.111118 5.869580 -0.000000
v -0.198250 -0.075836 -0.082118
v -0.102659 5.869580 -0.042523
v -0.151734 -0.075836 -0.151734
v -0.078572 5.869580 -0.078572
v -0.082118 -0.075836 -0.198250
v -0.042523 5.869580 -0.102659
vt 0.956845 0.237518
vt 0.955680 0.617505
vt 0.955319 0.237513
vt 0.001166 0.381153
vt 0.381153 0.379987
vt 0.381239 0.407976
vt 0.000000 0.000000
vt 0.998493 0.617505
vt 0.997327 0.237517
vt 0.998834 0.237513
vt 0.384394 0.719441
vt 0.383229 0.339616
vt 0.763216 0.338450
vt 0.379987 0.000000
vt 0.762257 0.025813
vt 0.382270 0.026979
vt 0.382191 0.001166
vt 0.966876 0.617539
vt 0.968331 0.617543
vt 0.968245 0.645532
vt 0.983313 0.617504
vt 0.984840 0.617500
vt 0.980180 0.645503
vt 0.763130 0.310368
vt 0.952638 0.855015
vt 0.951472 0.475028
vt 0.952303 0.475026
vt 0.966547 0.930132
vt 0.967372 0.930134
vt 0.967292 0.955952
vt 0.002125 0.693744
vt 0.382112 0.692578
vt 0.382191 0.718395
vt 0.978794 0.930112
vt 0.979660 0.930110
vt 0.979510 0.955928
vt 0.969496 0.237556
vt 0.968042 0.237552
vt 0.986006 0.617543
vt 0.984840 0.237556
vt 0.986275 0.237551
vt 0.967161 0.645529
vt 0.970662 0.617543
vt 0.972116 0.617539
vt 0.971832 0.645529
vt 0.945760 0.855036
vt 0.944594 0.475049
vt 0.945385 0.475047
vt 0.960198 0.930112
vt 0.966491 0.955949
vt 0.971621 0.930134
vt 0.972446 0.930132
vt 0.972501 0.955949
vt 0.954153 0.617500
vt 0.957674 0.645500
vt 0.987441 0.617538
vt 0.959333 0.930110
vt 0.960324 0.955930
vt 0.978669 0.955930
vt 0.946551 0.855034
vt 0.982147 0.237518
vt 0.983674 0.237513
vt 0.970950 0.237552
vt 0.383143 0.311534
vt 0.001252 0.409141
vt 0.981318 0.645500
vt 0.958813 0.645503
vt 0.970748 0.645532
vt 0.954153 0.118731
vt 0.768928 0.119299
vt 0.767693 0.086021
vt 0.951768 0.054467
vt 0.764381 0.057817
vt 0.941999 0.950051
vt 0.764759 0.893334
vt 0.765806 0.865116
vt 0.944022 0.895559
vt 0.766102 0.831834
vt 0.944594 0.831286
vt 0.765602 0.798554
vt 0.943628 0.767018
vt 0.764381 0.770343
vt 0.946102 0.475026
vt 0.764759 0.418320
vt 0.767897 0.390096
vt 0.952163 0.420521
vt 0.768928 0.356812
vt 0.954153 0.356243
vt 0.951768 0.291980
vt 0.767693 0.323534
vt 0.945373 0.237513
vt 0.941999 0.712539
vt 0.764759 0.655821
vt 0.944022 0.658046
vt 0.765806 0.627603
vt 0.944594 0.593773
vt 0.766102 0.594321
vt 0.943628 0.529505
vt 0.765602 0.561041
vt 0.941271 0.475026
vt 0.345211 0.732547
vt 0.369205 0.756541
vt 0.313861 0.719561
vt 0.952163 0.183008
vt 0.767897 0.152583
vt 0.946102 0.237513
vt 0.764759 0.180808
vt 0.382196 0.916912
vt 0.382191 0.851383
vt 0.407268 0.977455
vt 1.000000 0.617500
vt 0.764382 0.718275
vt 0.000000 0.001166
vt 0.762178 0.000000
vt 0.953468 0.855013
vt 0.002204 0.719561
vt 0.971700 0.955952
vt 0.959483 0.955928
vt 0.945373 0.000000
vt 0.941271 0.712539
vt 0.764381 0.295330
vt 0.764381 0.532830
vt 0.382191 0.787891
vt 0.382191 0.821825
vt 0.369205 0.853175
vt 0.345211 0.877169
vt 0.313861 0.890155
vt 0.279927 0.890155
vt 0.248577 0.877169
vt 0.224583 0.853175
vt 0.211597 0.821825
vt 0.211597 0.787891
vt 0.224583 0.756541
vt 0.248577 0.732547
vt 0.279927 0.719561
vt 0.407253 0.790845
vt 0.453567 0.744513
vt 0.514082 0.719441
vt 0.579585 0.719446
vt 0.640104 0.744528
vt 0.686425 0.790868
vt 0.711497 0.851410
vt 0.711502 0.916939
vt 0.686440 0.977478
vt 0.640126 1.023810
vt 0.579612 1.048882
vt 0.514108 1.048877
vt 0.453590 1.023795
vn -1.000000 0.000000 0.000000
vn -0.707083 -0.707083 0.000000
vn -0.707083 0.707083 0.000000
vn 0.707083 0.707083 0.000000
vn 1.000000 0.000000 0.000000
vn 0.000000 0.000000 1.000000
vn -0.593616 -0.643300 -0.483474
vn 0.593616 -0.643300 -0.483474
vn 0.707083 -0.687826 -0.163945
vn -0.707083 -0.687826 -0.163945
vn -0.590655 -0.500046 -0.633259
vn 0.839625 -0.393078 -0.374737
vn -0.707083 0.000000 -0.707083
vn 0.707083 0.000000 -0.707083
vn 0.590655 -0.500046 -0.633259
vn -0.999969 0.000000 0.000000
vn -0.577349 0.577349 -0.577349
vn 0.577349 0.577349 -0.577349
vn 0.999969 0.000000 0.000000
vn -0.839625 -0.393078 -0.374737
vn 0.707083 -0.707083 0.000000
vn 0.000000 -0.659261 -0.751885
vn 0.000000 0.672109 -0.740410
vn 0.283334 0.672109 -0.684042
vn 0.287729 -0.659261 -0.694662
vn 0.523545 0.672109 -0.523545
vn 0.531663 -0.659261 -0.531663
vn 0.684042 0.672109 -0.283334
vn 0.694662 -0.659261 -0.287729
vn 0.740410 0.672109 0.000000
vn 0.751885 -0.659261 0.000000
vn 0.684042 0.672109 0.283334
vn 0.694662 -0.659261 0.287729
vn 0.523545 0.672109 0.523545
vn 0.531663 -0.659261 0.531663
vn 0.283334 0.672109 0.684042
vn 0.287729 -0.659261 0.694662
vn 0.000000 0.672109 0.740410
vn 0.000000 -0.659261 0.751885
vn -0.287729 -0.659261 0.694662
vn -0.283334 0.672109 0.684042
vn -0.531663 -0.659261 0.531663
vn -0.523545 0.672109 0.523545
vn -0.694662 -0.659261 0.287729
vn -0.684042 0.672109 0.283334
vn -0.751885 -0.659261 0.000000
vn -0.740410 0.672109 0.000000
vn -0.694662 -0.659261 -0.287729
vn -0.684042 0.672109 -0.283334
vn -0.531663 -0.659261 -0.531663
vn -0.287729 -0.659261 -0.694662
vn -0.283334 0.672109 -0.684042
vn -0.523545 0.672109 -0.523545
usemtl PLAIN
s 1
f 40/1/1 28/2/1 34/3/2
f 6/4/3 7/5/4 12/6/4
f 39/7/5 26/7/6 4/7/6
f 26/8/6 29/9/6 1/10/6
f 34/11/2 2/12/7 3/13/8
f 35/14/4 7/5/4 6/4/3
f 42/15/9 41/16/10 13/17/11
f 17/18/1 6/19/3 11/20/3
f 27/21/5 3/22/8 32/23/5
f 3/13/8 2/12/7 10/24/12
f 31/25/13 30/26/14 14/27/15
f 45/28/16 43/29/3 15/30/17
f 43/31/3 44/32/4 16/33/18
f 48/34/5 42/35/9 14/36/15
f 33/37/3 6/19/3 37/38/1
f 35/7/4 8/7/6 20/7/6
f 8/39/6 5/40/6 18/41/6
f 28/2/1 17/18/1 21/42/1
f 7/43/4 19/44/5 22/45/5
f 15/46/17 16/47/18 24/48/14
f 47/49/1 45/28/16 23/50/13
f 44/51/4 46/52/19 24/53/14
f 37/38/1 17/18/1 40/1/1
f 19/44/5 27/21/5 32/23/5
f 2/54/7 28/2/1 9/55/20
f 20/56/6 18/41/6 29/9/6
f 41/57/10 47/49/1 31/58/13
f 38/7/5 20/7/6 26/7/6
f 46/52/19 48/34/5 30/59/14
f 23/60/13 24/48/14 30/26/14
f 29/7/6 40/7/1 34/7/2
f 27/21/5 39/61/5 36/62/21
f 1/7/6 34/7/2 36/7/21
f 8/7/6 35/7/4 33/7/3
f 5/7/6 33/7/3 37/7/1
f 7/43/4 35/37/4 38/63/5
f 18/7/6 37/7/1 40/7/1
f 19/44/5 38/63/5 39/61/5
f 10/24/12 9/64/20 41/16/10
f 21/42/1 11/20/3 43/29/3
f 11/65/3 12/6/4 44/32/4
f 32/23/5 10/66/12 42/35/9
f 25/67/1 21/42/1 45/28/16
f 12/68/4 22/45/5 46/52/19
f 9/55/20 25/67/1 47/49/1
f 22/45/5 32/23/5 48/34/5
f 49/69/22 50/70/23 52/71/24
f 51/72/25 52/71/24 54/73/26
f 53/74/27 54/75/26 56/76/28
f 55/77/29 56/76/28 58/78/30
f 57/79/31 58/78/30 60/80/32
f 59/81/33 60/80/32 62/82/34
f 61/83/35 62/84/34 64/85/36
f 63/86/37 64/85/36 66/87/38
f 65/88/39 66/87/38 67/89/40
f 67/89/40 68/90/41 69/91/42
f 69/92/42 70/93/43 71/94/44
f 71/94/44 72/95/45 73/96/46
f 73/96/46 74/97/47 75/98/48
f 75/98/48 76/99/49 77/100/50
f 52/101/24 50/102/23 54/103/26
f 79/104/51 80/105/52 49/69/22
f 77/106/50 78/107/53 79/104/51
f 49/108/22 51/109/25 79/110/51
f 28/2/1 2/54/7 34/3/2
f 11/65/3 6/4/3 12/6/4
f 36/7/21 39/7/5 4/7/6
f 4/111/6 26/8/6 1/10/6
f 36/112/21 34/11/2 3/13/8
f 33/113/3 35/14/4 6/4/3
f 14/114/15 42/15/9 13/17/11
f 21/42/1 17/18/1 11/20/3
f 3/22/8 10/66/12 32/23/5
f 2/12/7 9/64/20 10/24/12
f 13/115/11 31/25/13 14/27/15
f 23/50/13 45/28/16 15/30/17
f 15/116/17 43/31/3 16/33/18
f 30/59/14 48/34/5 14/36/15
f 6/19/3 17/18/1 37/38/1
f 38/7/5 35/7/4 20/7/6
f 20/56/6 8/39/6 18/41/6
f 25/67/1 28/2/1 21/42/1
f 12/68/4 7/43/4 22/45/5
f 23/60/13 15/46/17 24/48/14
f 31/58/13 47/49/1 23/50/13
f 16/117/18 44/51/4 24/53/14
f 17/18/1 28/2/1 40/1/1
f 22/45/5 19/44/5 32/23/5
f 28/2/1 25/67/1 9/55/20
f 26/8/6 20/56/6 29/9/6
f 13/118/11 41/57/10 31/58/13
f 39/7/5 38/7/5 26/7/6
f 24/53/14 46/52/19 30/59/14
f 31/25/13 23/60/13 30/26/14
f 1/7/6 29/7/6 34/7/2
f 3/22/8 27/21/5 36/62/21
f 4/7/6 1/7/6 36/7/21
f 5/7/6 8/7/6 33/7/3
f 18/7/6 5/7/6 37/7/1
f 19/44/5 7/43/4 38/63/5
f 29/7/6 18/7/6 40/7/1
f 27/21/5 19/44/5 39/61/5
f 42/15/9 10/24/12 41/16/10
f 45/28/16 21/42/1 43/29/3
f 43/31/3 11/65/3 44/32/4
f 48/34/5 32/23/5 42/35/9
f 47/49/1 25/67/1 45/28/16
f 44/51/4 12/68/4 46/52/19
f 41/57/10 9/55/20 47/49/1
f 46/52/19 22/45/5 48/34/5
f 51/72/25 49/69/22 52/71/24
f 53/119/27 51/72/25 54/73/26
f 55/77/29 53/74/27 56/76/28
f 57/79/31 55/77/29 58/78/30
f 59/81/33 57/79/31 60/80/32
f 61/120/35 59/81/33 62/82/34
f 63/86/37 61/83/35 64/85/36
f 65/88/39 63/86/37 66/87/38
f 66/87/38 68/90/41 67/89/40
f 68/90/41 70/121/43 69/91/42
f 70/93/43 72/95/45 71/94/44
f 72/95/45 74/97/47 73/96/46
f 74/97/47 76/99/49 75/98/48
f 76/99/49 78/122/53 77/100/50
f 50/102/23 80/123/52 54/103/26
f 80/123/52 78/124/53 54/103/26
f 78/124/53 76/125/49 54/103/26
f 76/125/49 74/126/47 54/103/26
f 74/126/47 72/127/45 54/103/26
f 72/127/45 70/128/43 54/103/26
f 70/128/43 68/129/41 54/103/26
f 68/129/41 66/130/38 54/103/26
f 66/130/38 64/131/36 54/103/26
f 64/131/36 62/132/34 54/103/26
f 62/132/34 60/133/32 54/103/26
f 60/133/32 58/134/30 56/135/28
f 54/103/26 60/133/32 56/135/28
f 80/105/52 50/70/23 49/69/22
f 78/107/53 80/105/52 79/104/51
f 51/109/25 53/136/27 79/110/51
f 53/136/27 55/137/29 79/110/51
f 55/137/29 57/138/31 79/110/51
f 57/138/31 59/139/33 79/110/51
f 59/139/33 61/140/35 79/110/51
f 61/140/35 63/141/37 79/110/51
f 63/141/37 65/142/39 79/110/51
f 65/142/39 67/143/40 79/110/51
f 67/143/40 69/144/42 79/110/51
f 69/144/42 71/145/44 79/110/51
f 71/145/44 73/146/46 79/110/51
f 73/146/46 75/147/48 79/110/51
f 75/147/48 77/148/50 79/110/51
