# Blender v2.66 (sub 0) OBJ File: 'house1.blend'
# www.blender.org
mtllib house_1_windows.mtl
o Plane.008_Plane.026
v 0.487228 2.560410 2.320709
v -0.472342 2.560410 2.320709
v 0.487228 3.334506 2.320710
v -0.472341 3.334507 2.320710
v -2.154813 2.562901 0.159168
v -2.154813 2.562901 -0.297492
v -2.154813 3.336997 0.159168
v -2.154813 3.336997 -0.297492
v -2.154813 0.666522 -0.580110
v -2.154813 0.666522 -1.036770
v -2.154814 1.440618 -0.580110
v -2.154814 1.440618 -1.036770
v -2.154813 0.666522 1.037659
v -2.154813 0.666522 0.581000
v -2.154813 1.440618 1.037659
v -2.154813 1.440618 0.581000
v 2.151010 0.666522 -1.093396
v 2.151010 0.666522 -0.636737
v 2.151010 1.440618 -1.093396
v 2.151010 1.440618 -0.636737
v 2.151010 0.666522 0.524374
v 2.151010 0.666522 0.981033
v 2.151010 1.440618 0.524374
v 2.151010 1.440618 0.981033
v 2.151010 2.562901 -0.214904
v 2.151010 2.562901 0.241755
v 2.151011 3.336997 -0.214904
v 2.151011 3.336997 0.241755
v -1.086373 0.672919 1.735390
v -1.543032 0.672919 1.735390
v -1.086373 1.447015 1.735390
v -1.543032 1.447015 1.735390
v -1.086373 2.562901 1.735390
v -1.543032 2.562901 1.735390
v -1.086373 3.336997 1.735390
v -1.543032 3.336997 1.735390
v 1.570019 2.562901 1.735390
v 1.113360 2.562901 1.735390
v 1.570019 3.336997 1.735390
v 1.113360 3.336997 1.735390
v 1.570019 0.672919 1.735390
v 1.113360 0.672919 1.735390
v 1.570019 1.447015 1.735390
v 1.113360 1.447015 1.735390
vt 0.003058 1.000000
vt 0.000000 0.003058
vt 1.000000 0.996942
vt 0.996942 0.000000
vn 0.000000 -0.000001 1.000000
vn -1.000000 -0.000001 -0.000000
vn -1.000000 -0.000001 0.000001
vn 1.000000 0.000000 -0.000001
vn 1.000000 0.000000 -0.000000
vn 1.000000 -0.000001 0.000000
vn -0.000000 -0.000000 1.000000
usemtl glass
s off
f 2/1/1 1/2/1 4/3/1
f 6/1/2 5/2/2 8/3/2
f 10/1/2 9/2/2 12/3/2
f 14/1/3 13/2/3 16/3/3
f 18/1/4 17/2/4 19/4/4
f 22/1/5 21/2/5 23/4/5
f 26/1/6 25/2/6 27/4/6
f 30/1/1 29/2/1 31/4/1
f 34/1/1 33/2/1 35/4/1
f 38/1/7 37/2/7 39/4/7
f 42/1/7 41/2/7 43/4/7
f 1/2/1 3/4/1 4/3/1
f 5/2/3 7/4/3 8/3/3
f 9/2/2 11/4/2 12/3/2
f 13/2/2 15/4/2 16/3/2
f 20/3/4 18/1/4 19/4/4
f 24/3/5 22/1/5 23/4/5
f 28/3/6 26/1/6 27/4/6
f 32/3/1 30/1/1 31/4/1
f 36/3/1 34/1/1 35/4/1
f 40/3/7 38/1/7 39/4/7
f 44/3/7 42/1/7 43/4/7
