# Blender v2.66 (sub 0) OBJ File: 'house1.blend'
# www.blender.org
mtllib house_1_body.mtl
o Cube.018_Cube.031
v 2.147996 0.245368 -1.733312
v 2.147996 0.245368 1.733312
v 2.147997 1.995306 -1.733312
v 2.147995 1.995306 1.733314
v 2.147997 3.674067 -1.733312
v 2.147995 3.674067 1.733314
v 2.147997 2.216611 -1.733312
v 2.147995 2.216611 1.733314
v 1.318635 1.995306 -1.733312
v 1.318631 1.995306 1.733313
v 1.318635 3.674067 -1.733312
v 1.318631 3.674067 1.733313
v 2.147995 2.307145 1.733314
v 2.147997 2.307145 -1.733312
v 1.318634 0.245368 -1.733313
v 1.318634 0.245368 1.733312
v 1.318631 2.307145 1.733313
v 1.318635 2.307145 -1.733312
v 1.318631 2.216611 1.733313
v 1.318635 2.216611 -1.733312
v 1.318631 2.307145 1.733313
v 1.318631 2.216611 1.733313
v 1.318631 2.307145 1.733313
v 1.318631 2.216611 1.733313
v 0.825812 2.307145 1.733313
v 0.825815 0.245368 -1.733313
v 0.825814 0.245368 1.733312
v 0.825816 3.674067 -1.733312
v 0.825812 3.674067 1.733313
v 0.825816 1.995306 -1.733312
v 0.825812 1.995306 1.733313
v 0.825812 2.216611 1.733313
v 0.825816 2.307145 -1.733312
v 0.825816 2.216611 -1.733312
v 0.825812 3.674067 2.316697
v 0.825812 1.952947 2.316697
v 2.147996 0.245368 0.000000
v 2.147996 1.995306 0.000001
v 2.147996 4.200289 0.000001
v 2.147996 2.216611 0.000001
v 1.318633 3.674067 0.000001
v 2.147996 2.307145 0.000001
v 1.318634 0.245368 -0.000000
v 0.825815 0.245368 -0.000000
v 0.825814 3.674067 0.000001
v -2.147996 0.245368 -1.733312
v -2.147996 0.245368 1.733312
v -2.147997 1.995306 -1.733312
v -2.147995 1.995306 1.733314
v -2.147997 3.674067 -1.733312
v -2.147995 3.674067 1.733314
v -2.147997 2.216611 -1.733312
v -2.147995 2.216611 1.733314
v -1.318635 1.995306 -1.733312
v -1.318631 1.995306 1.733313
v -1.318635 3.674067 -1.733312
v -1.318631 3.674067 1.733313
v -2.147995 2.307145 1.733314
v -2.147997 2.307145 -1.733312
v -1.318634 0.245368 -1.733313
v -1.318634 0.245368 1.733312
v -1.318631 2.307145 1.733313
v -1.318635 2.307145 -1.733312
v -1.318631 2.216611 1.733313
v -1.318635 2.216611 -1.733312
v -1.318631 2.307145 1.733313
v -1.318631 2.216611 1.733313
v -1.318631 2.307145 1.733313
v -1.318631 2.216611 1.733313
v 0.000002 2.307145 1.733313
v -0.000001 2.307145 -1.733312
v -0.000001 0.245368 -1.733313
v 0.000000 0.245368 1.733312
v -0.000001 3.694254 -1.733312
v 0.000002 4.090770 1.733313
v -0.000001 1.995306 -1.733312
v 0.000002 1.995306 1.733313
v 0.000002 2.216611 1.733313
v -0.000001 2.216611 -1.733312
v -0.825812 2.307145 1.733313
v -0.825815 0.245368 -1.733313
v -0.825814 0.245368 1.733312
v -0.825816 3.674067 -1.733312
v -0.825812 3.674067 1.733313
v -0.825816 1.995306 -1.733312
v -0.825812 1.995306 1.733313
v -0.825812 2.216611 1.733313
v -0.825816 2.307145 -1.733312
v -0.825816 2.216611 -1.733312
v -0.825812 3.674067 2.316697
v -0.825812 1.952947 2.316697
v 0.000002 4.090770 2.316697
v 0.000002 1.952947 2.316697
v -2.147996 0.245368 0.000000
v -2.147996 1.995306 0.000001
v -2.147996 4.200289 0.000001
v -2.147996 2.216611 0.000001
v -1.318633 3.674067 0.000001
v -2.147996 2.307145 0.000001
v -1.318634 0.245368 -0.000000
v -0.000000 0.245368 -0.000000
v 0.000001 4.090770 0.000000
v -0.825815 0.245368 -0.000000
v -0.825814 3.674067 0.000001
vt -0.359903 -0.480495
vt -0.357208 0.398066
vt -0.861955 -0.478954
vt -0.356727 0.554625
vt 0.145325 0.553085
vt 0.147430 1.239352
vt 0.962860 0.554030
vt 1.156708 0.554625
vt 0.960755 1.240297
vt 0.144845 0.396526
vt 0.145185 0.507632
vt 0.963340 0.397471
vt 1.157188 0.398066
vt 0.963000 0.508578
vt 0.652099 0.369385
vt 0.654795 1.247946
vt 0.460947 1.248540
vt 1.663476 1.202596
vt 1.665016 1.704648
vt 1.471169 1.705243
vt 1.159883 -0.480495
vt 0.966036 -0.481089
vt 1.156847 0.509172
vt -0.356867 0.509172
vt 1.645571 0.180019
vt 1.498849 0.197080
vt 1.499136 -0.304114
vt 0.651619 0.212826
vt 0.457772 0.213421
vt 0.455666 -0.472846
vt 0.847673 0.553677
vt 0.458252 0.369980
vt 0.457911 0.258874
vt 0.848153 0.397118
vt 0.651759 0.258279
vt -0.861955 -0.482035
vt 1.354441 1.203544
vt 1.355982 1.705596
vt 1.162964 1.706189
vt 1.385298 0.198147
vt 1.159883 0.187847
vt 1.160171 -0.313347
vt 0.343065 0.370333
vt 0.345760 1.248894
vt 0.152743 1.249486
vt 0.850849 -0.481443
vt 0.657831 -0.482035
vt 0.342585 0.213774
vt 0.149567 0.214367
vt 0.340480 -0.472492
vt 0.150047 0.370926
vt 0.149706 0.259819
vt 0.342724 0.259227
vt 0.654795 1.433909
vt 0.655387 1.240891
vt 0.833212 1.241437
vt 0.655135 0.396526
vt 0.654795 0.507632
vt 1.469628 1.203191
vt 1.385585 -0.303047
vt 1.160267 -0.482035
vt 1.159883 1.419235
vt 1.157778 2.105502
vt 0.988802 2.104983
vt 1.007464 2.265585
vt 0.812684 2.266222
vt 1.004141 1.110903
vt 0.142149 -0.482035
vt -0.858780 0.556165
vt -0.856674 1.242432
vt -0.859260 0.399606
vt 1.661935 0.700544
vt -0.858919 0.510713
vt 1.689657 0.696478
vt 1.498562 0.698274
vt 1.352901 0.701492
vt 1.161424 1.204136
vt 1.385011 0.699341
vt 1.193032 0.700544
vt 1.468088 0.701139
vt -0.353812 1.505082
vt 1.154602 1.240891
vt 1.690231 -0.305910
vt 0.649513 -0.473441
vt 0.845568 1.239944
vt 0.847812 0.508224
vt 0.147430 -0.482035
vt 0.832620 1.434455
vt 1.385682 -0.471735
vt 0.991452 1.240891
vt 1.692979 0.700544
vt 1.861955 0.700026
vt 1.690231 -0.194930
vt 0.810009 1.336609
vt 1.159883 0.702084
vt 1.858662 -0.373273
vn 1.000000 0.000000 0.000000
vn 1.000000 0.000000 0.000001
vn -0.000001 0.000000 1.000000
vn 0.000000 0.000000 -1.000000
vn 0.000000 -1.000000 0.000000
vn -0.000000 -0.000001 1.000000
vn -0.535748 0.844378 -0.000001
vn 0.000000 0.000000 1.000000
vn 0.000000 0.000000 0.000000
vn 0.450494 0.892780 -0.000000
vn 0.000000 -0.854788 -0.518978
vn -0.000000 1.000000 0.000000
vn 0.450495 0.892779 0.000000
vn 1.000000 -0.000001 0.000001
vn 0.024437 0.999701 0.000000
vn -1.000000 0.000001 0.000000
vn -1.000000 0.000000 0.000001
vn 0.000001 0.000000 1.000000
vn 0.518968 0.817931 0.248318
vn -0.450493 0.892780 0.000000
vn -1.000000 -0.000000 -0.000000
vn -1.000000 -0.000001 -0.000000
vn -0.000000 0.956875 -0.290500
vn 1.000000 0.000001 0.000001
vn -0.000000 0.956875 0.290500
vn -0.518968 0.817931 -0.248318
vn 0.441382 0.874723 -0.200104
vn 0.535748 0.844378 -0.000001
vn -0.023822 0.974541 -0.222938
usemtl weather_board
s off
f 37/1/1 38/2/1 2/3/1
f 42/4/2 14/5/2 5/6/2
f 17/7/3 13/8/3 12/9/3
f 38/2/2 3/10/2 7/11/2
f 10/12/3 4/13/3 19/14/3
f 3/15/4 1/16/4 15/17/4
f 37/18/5 2/19/5 16/20/5
f 2/21/6 4/13/6 16/22/6
f 19/14/3 8/23/3 17/7/3
f 40/24/2 7/11/2 14/5/2
f 39/25/7 41/26/7 12/27/7
f 14/28/4 18/29/4 11/30/4
f 25/31/8 17/7/8 12/9/8
f 3/15/4 9/32/4 20/33/4
f 31/34/8 10/12/8 19/14/8
f 7/35/4 20/33/4 18/29/4
f 19/36/9 17/36/9 21/36/9
f 22/36/9 21/36/9 23/36/9
f 44/37/5 27/38/5 73/39/5
f 45/40/10 102/41/10 75/42/10
f 30/43/4 26/44/4 72/45/4
f 27/46/8 31/34/8 73/47/8
f 33/48/4 71/49/4 28/50/4
f 30/43/4 76/51/4 79/52/4
f 34/53/4 79/52/4 71/49/4
f 70/54/11 25/55/11 36/56/11
f 77/57/8 31/34/8 78/58/8
f 43/59/5 16/20/5 27/38/5
f 41/26/12 45/40/12 12/27/12
f 9/32/4 15/17/4 26/44/4
f 16/22/8 10/12/8 27/46/8
f 18/29/4 33/48/4 28/50/4
f 9/32/4 30/43/4 34/53/4
f 20/33/4 34/53/4 33/48/4
f 29/60/13 75/42/13 92/61/13
f 25/62/1 29/63/1 35/64/1
f 93/65/8 36/66/8 92/67/8
f 1/68/14 3/10/14 38/2/14
f 13/69/2 42/4/2 6/70/2
f 4/71/2 38/2/2 40/24/2
f 1/72/5 37/18/5 43/59/5
f 8/73/2 40/24/2 42/4/2
f 5/74/12 11/75/12 41/26/12
f 26/76/5 44/37/5 101/77/5
f 28/78/15 74/79/15 45/40/15
f 15/80/5 43/59/5 44/37/5
f 11/75/12 28/78/12 41/26/12
f 94/1/16 47/3/16 49/71/16
f 99/4/17 96/81/17 59/5/17
f 62/7/18 57/9/18 51/82/18
f 95/2/17 97/24/17 48/10/17
f 55/12/18 64/14/18 53/23/18
f 48/15/4 54/32/4 46/16/4
f 94/18/5 100/59/5 61/20/5
f 47/21/6 61/22/6 49/13/6
f 64/14/18 62/7/18 58/8/18
f 97/24/17 99/4/17 52/11/17
f 96/25/19 51/83/19 98/26/19
f 59/28/4 50/84/4 63/29/4
f 80/31/8 84/85/8 57/9/8
f 48/15/4 52/35/4 54/32/4
f 86/34/8 87/86/8 64/14/8
f 52/35/4 59/28/4 65/33/4
f 64/36/9 67/36/9 66/36/9
f 67/36/9 69/36/9 68/36/9
f 103/37/5 101/77/5 73/39/5
f 104/40/20 84/60/20 75/42/20
f 85/43/4 76/51/4 81/44/4
f 82/46/8 73/47/8 86/34/8
f 88/48/4 83/50/4 74/87/4
f 85/43/4 89/53/4 76/51/4
f 89/53/4 88/48/4 79/52/4
f 70/54/11 93/88/11 80/55/11
f 77/57/8 78/58/8 87/86/8
f 100/59/5 103/37/5 82/38/5
f 98/26/12 57/27/12 104/40/12
f 54/32/4 85/43/4 81/44/4
f 61/22/8 82/46/8 55/12/8
f 63/29/4 56/30/4 83/50/4
f 54/32/4 65/33/4 89/53/4
f 65/33/4 63/29/4 88/48/4
f 84/60/20 90/89/20 75/42/20
f 80/62/21 91/90/21 84/63/21
f 75/91/1 92/92/1 70/93/1
f 93/65/8 92/67/8 90/94/8
f 46/68/22 94/1/22 48/10/22
f 58/69/17 51/70/17 96/81/17
f 49/71/17 53/73/17 95/2/17
f 46/72/5 60/80/5 100/59/5
f 53/73/17 58/69/17 97/24/17
f 50/74/23 96/25/23 56/75/23
f 81/76/5 72/95/5 101/77/5
f 83/78/20 104/40/20 102/41/20
f 60/80/5 81/76/5 103/37/5
f 56/75/12 98/26/12 83/78/12
f 38/2/24 4/71/24 2/3/24
f 39/81/2 42/4/2 5/6/2
f 13/8/3 6/82/3 12/9/3
f 40/24/2 38/2/2 7/11/2
f 4/13/3 8/23/3 19/14/3
f 9/32/4 3/15/4 15/17/4
f 43/59/5 37/18/5 16/20/5
f 4/13/3 10/12/3 16/22/3
f 8/23/3 13/8/3 17/7/3
f 42/4/2 40/24/2 14/5/2
f 6/83/25 39/25/25 12/27/25
f 5/84/4 14/28/4 11/30/4
f 29/85/8 25/31/8 12/9/8
f 7/35/4 3/15/4 20/33/4
f 32/86/8 31/34/8 19/14/8
f 14/28/4 7/35/4 18/29/4
f 22/36/9 19/36/9 21/36/9
f 24/36/9 22/36/9 23/36/9
f 101/77/5 44/37/5 73/39/5
f 29/60/13 45/40/13 75/42/13
f 76/51/4 30/43/4 72/45/4
f 31/34/8 77/57/8 73/47/8
f 71/49/4 74/87/4 28/50/4
f 34/53/4 30/43/4 79/52/4
f 33/48/4 34/53/4 71/49/4
f 93/88/11 70/54/11 36/56/11
f 31/34/8 32/86/8 78/58/8
f 44/37/5 43/59/5 27/38/5
f 45/40/12 29/60/12 12/27/12
f 30/43/4 9/32/4 26/44/4
f 10/12/8 31/34/8 27/46/8
f 11/30/4 18/29/4 28/50/4
f 20/33/4 9/32/4 34/53/4
f 18/29/4 20/33/4 33/48/4
f 35/89/13 29/60/13 92/61/13
f 36/90/1 25/62/1 35/64/1
f 36/66/8 35/94/8 92/67/8
f 37/1/1 1/68/1 38/2/1
f 42/4/2 39/81/2 6/70/2
f 8/73/2 4/71/2 40/24/2
f 15/80/5 1/72/5 43/59/5
f 13/69/2 8/73/2 42/4/2
f 39/25/26 5/74/26 41/26/26
f 72/95/5 26/76/5 101/77/5
f 74/79/27 102/41/27 45/40/27
f 26/76/5 15/80/5 44/37/5
f 28/78/12 45/40/12 41/26/12
f 95/2/17 94/1/17 49/71/17
f 96/81/17 50/6/17 59/5/17
f 58/8/18 62/7/18 51/82/18
f 97/24/17 52/11/17 48/10/17
f 49/13/18 55/12/18 53/23/18
f 54/32/4 60/17/4 46/16/4
f 47/19/5 94/18/5 61/20/5
f 61/22/18 55/12/18 49/13/18
f 53/23/18 64/14/18 58/8/18
f 99/4/17 59/5/17 52/11/17
f 51/83/12 57/27/12 98/26/12
f 50/84/4 56/30/4 63/29/4
f 62/7/8 80/31/8 57/9/8
f 52/35/4 65/33/4 54/32/4
f 55/12/8 86/34/8 64/14/8
f 59/28/4 63/29/4 65/33/4
f 62/36/9 64/36/9 66/36/9
f 66/36/9 67/36/9 68/36/9
f 82/38/5 103/37/5 73/39/5
f 102/41/20 104/40/20 75/42/20
f 76/51/4 72/45/4 81/44/4
f 73/47/8 77/57/8 86/34/8
f 71/49/4 88/48/4 74/87/4
f 89/53/4 79/52/4 76/51/4
f 88/48/4 71/49/4 79/52/4
f 93/88/11 91/56/11 80/55/11
f 86/34/8 77/57/8 87/86/8
f 61/20/5 100/59/5 82/38/5
f 57/27/12 84/60/12 104/40/12
f 60/17/4 54/32/4 81/44/4
f 82/46/8 86/34/8 55/12/8
f 88/48/4 63/29/4 83/50/4
f 85/43/4 54/32/4 89/53/4
f 89/53/4 65/33/4 88/48/4
f 90/89/20 92/61/20 75/42/20
f 91/90/21 90/64/21 84/63/21
f 92/92/1 93/96/1 70/93/1
f 91/66/8 93/65/8 90/94/8
f 94/1/17 95/2/17 48/10/17
f 99/4/17 58/69/17 96/81/17
f 53/73/17 97/24/17 95/2/17
f 94/18/5 46/72/5 100/59/5
f 58/69/17 99/4/17 97/24/17
f 96/25/28 98/26/28 56/75/28
f 103/37/5 81/76/5 101/77/5
f 74/79/29 83/78/29 102/41/29
f 100/59/5 60/80/5 103/37/5
f 98/26/12 104/40/12 83/78/12
