# Blender v2.66 (sub 1) OBJ File: 'tree_1.blend'
# www.blender.org
mtllib tree_2_top.mtl
o Icosphere
v 0.000000 3.196505 0.000000
v 1.737728 4.171107 1.199173
v -0.627920 4.346690 1.747180
v -2.579681 3.910366 -0.015768
v -0.772900 3.947251 -2.191595
v 1.480055 4.327154 -1.075310
v 0.362491 6.056053 1.337489
v -1.258628 6.232644 0.955126
v -1.560683 6.204135 -1.069507
v 0.746208 6.405301 -2.191595
v 1.829445 6.156617 0.000000
v 0.064198 7.140437 0.184754
v 1.468414 3.215683 0.936353
v 0.418961 4.210426 1.132502
v -0.332284 3.501974 1.022683
v 0.931245 3.653573 -0.587242
v 1.186158 4.680738 -0.054940
v -1.563791 4.603432 1.076827
v -1.458128 2.838562 0.146112
v -1.407612 4.166557 -1.022686
v -0.212820 3.985899 -0.766732
v 0.396490 4.390715 -1.427441
v 1.945279 5.241889 -0.632050
v 1.635943 5.127969 0.408015
v 1.277252 4.905185 1.583107
v -0.006312 5.204556 2.099535
v -0.878970 5.318190 1.283435
v -1.649028 5.457320 0.423866
v -1.945279 5.241889 -0.632050
v -1.558680 5.446296 -2.022223
v -0.010809 5.301816 -1.652501
v 1.645734 5.075662 -2.845856
v 1.798825 6.560360 1.575543
v -0.577473 6.692822 1.955813
v -1.739902 6.317222 0.000000
v -0.978660 6.373420 -1.630343
v 1.032586 6.345404 -0.828583
v 1.212604 7.341524 0.531440
v 0.233305 6.482106 0.529853
v -0.758117 6.699943 0.448312
v -0.641743 6.603350 -0.192008
v 0.504365 7.569778 -1.508780
vt 0.882029 0.672162
vt 0.738868 0.636801
vt 0.885400 0.561698
vt 0.385442 0.817602
vt 0.311727 0.817648
vt 0.333712 0.710865
vt 0.972536 0.605200
vt 0.650143 0.493948
vt 0.643306 0.612316
vt 0.556869 0.547044
vt 0.556061 0.406209
vt 0.461317 0.000000
vt 0.542038 0.119176
vt 0.443724 0.098943
vt 0.864428 0.438523
vt 0.777701 0.538272
vt 0.758898 0.381523
vt 0.234041 0.115780
vt 0.260538 0.252922
vt 0.146362 0.227183
vt 0.442962 0.589658
vt 0.521529 0.668574
vt 0.349674 0.710419
vt 0.458201 0.360095
vt 0.445079 0.482269
vt 0.311727 0.410378
vt 0.381059 0.042324
vt 0.880051 0.360279
vt 0.117840 0.108883
vt 0.332029 0.550373
vt 0.621859 0.184466
vt 0.644982 0.338165
vt 0.511214 0.204536
vt 0.184697 0.519158
vt 0.271190 0.608611
vt 0.137451 0.641241
vt 0.094284 0.324375
vt 0.090669 0.436131
vt 0.020756 0.313860
vt 0.869358 0.220511
vt 0.906459 0.107663
vt 0.980383 0.197423
vt 0.753489 0.134639
vt 0.735922 0.303071
vt 0.645275 0.159679
vt 0.311727 0.721897
vt 0.229778 0.836042
vt 0.198760 0.697781
vt 0.650143 0.592882
vt 0.645275 0.117890
vt 0.545385 0.036811
vt 0.778567 0.724931
vt 0.311656 0.118167
vt 0.953308 0.430384
vt 0.584738 0.710865
vt 0.393915 0.230669
vt 0.655290 0.495209
vt 0.676322 0.360095
vt 0.224225 0.347427
vt 0.311727 0.334433
vt 0.027559 0.000000
vt 0.000000 0.108078
vt 0.199537 0.041289
vt 0.869358 0.055206
vt 0.869184 0.196319
vt 0.311696 0.505747
vt 0.311727 0.178727
vt 0.241323 0.425971
vt 0.175559 0.436131
vt 0.066244 0.509957
vt 0.042810 0.223037
vt 0.847884 0.358685
vt 0.738019 0.360095
vt 0.449525 0.360095
vt 0.674660 0.055756
vt 0.100706 0.699460
vt 0.031937 0.638861
vt 0.580264 0.775422
vt 0.585552 0.710865
vt 0.650143 0.717460
vt 0.998289 0.136217
vt 0.999779 0.051329
vt 0.650040 0.858663
vt 1.000000 0.360095
vt 0.888629 0.298233
vt 0.120456 0.844504
vn 0.080752 -0.955565 -0.283486
vn 0.607257 -0.713645 0.349101
vn -0.058992 -0.710471 0.701193
vn 0.835810 -0.241951 0.492782
vn 0.895993 -0.441145 -0.050661
vn -0.316782 -0.947905 0.032624
vn 0.039125 -0.856838 -0.514023
vn 0.478713 -0.734916 -0.480300
vn 0.958983 -0.280404 0.041322
vn -0.273293 -0.388592 0.879910
vn 0.137669 -0.441481 0.886624
vn 0.032716 -0.059511 0.997681
vn -0.961852 -0.273446 -0.007294
vn -0.659169 -0.002716 0.751946
vn -0.861934 0.218665 0.457411
vn -0.072237 -0.645772 -0.760094
vn -0.561266 -0.615284 -0.553484
vn -0.571886 0.144658 -0.807459
vn 0.672628 -0.728599 -0.129124
vn 0.109561 -0.717734 -0.687613
vn 0.445143 -0.149327 -0.882900
vn 0.494736 -0.173101 0.851619
vn -0.690329 0.081698 0.718833
vn -0.970000 0.132115 -0.204016
vn -0.115482 -0.069521 -0.990844
vn 0.997284 -0.073458 -0.002411
vn 0.283364 0.620899 0.730857
vn 0.561785 0.423017 0.710929
vn -0.053926 0.768090 0.638020
vn -0.800501 0.375256 0.467238
vn -0.175085 0.652577 0.737175
vn -0.306681 0.946959 0.095798
vn -0.702780 0.670217 -0.238502
vn -0.786584 0.608142 0.106815
vn -0.463973 0.880032 -0.101077
vn 0.259377 0.436384 -0.861538
vn -0.417005 0.625324 -0.659566
vn 0.175390 0.884579 -0.432081
vn 0.929868 0.295083 -0.219550
vn 0.832759 0.458113 -0.310800
vn 0.305032 0.907498 0.288736
vn -0.379162 0.804163 0.457686
usemtl leaves
s 1
f 1/1/1 13/2/2 15/3/3
f 2/4/4 13/5/2 17/6/5
f 1/1/1 15/3/3 19/7/6
f 1/8/1 19/9/6 21/10/7
f 1/8/1 21/10/7 16/11/8
f 2/12/4 17/13/5 24/14/9
f 3/15/10 14/16/11 26/17/12
f 4/18/13 18/19/14 28/20/15
f 5/21/16 20/22/17 30/23/18
f 6/24/19 22/25/20 32/26/21
f 2/12/4 24/14/9 25/27/22
f 3/15/10 26/17/12 27/28/23
f 4/18/13 28/20/15 29/29/24
f 5/21/16 30/23/18 31/30/25
f 6/31/19 32/32/21 23/33/26
f 7/34/27 33/35/28 39/36/29
f 8/37/30 34/38/31 40/39/32
f 9/40/33 35/41/34 41/42/35
f 10/43/36 36/44/37 42/45/38
f 11/46/39 37/47/40 38/48/41
f 15/3/3 14/16/11 3/15/10
f 15/3/3 13/2/2 14/16/11
f 13/2/2 2/49/4 14/16/11
f 17/13/5 16/50/8 6/31/19
f 17/13/5 13/51/2 16/50/8
f 13/2/2 1/1/1 16/52/8
f 19/53/6 18/19/14 4/18/13
f 19/7/6 15/3/3 18/54/14
f 15/3/3 3/15/10 18/54/14
f 21/10/7 20/22/17 5/21/16
f 21/10/7 19/9/6 20/22/17
f 19/9/6 4/55/13 20/22/17
f 16/11/8 22/25/20 6/24/19
f 16/11/8 21/10/7 22/25/20
f 21/10/7 5/21/16 22/25/20
f 24/14/9 23/33/26 11/56/39
f 24/14/9 17/13/5 23/33/26
f 17/13/5 6/31/19 23/33/26
f 26/17/12 25/57/22 7/58/27
f 26/17/12 14/16/11 25/57/22
f 14/16/11 2/49/4 25/57/22
f 28/20/15 27/59/23 8/37/30
f 28/20/15 18/19/14 27/59/23
f 18/19/14 3/60/10 27/59/23
f 30/61/18 29/29/24 9/62/33
f 30/61/18 20/63/17 29/29/24
f 20/63/17 4/18/13 29/29/24
f 32/64/21 31/65/25 10/43/36
f 32/26/21 22/25/20 31/30/25
f 22/25/20 5/21/16 31/30/25
f 25/66/22 33/35/28 7/34/27
f 25/27/22 24/14/9 33/67/28
f 24/14/9 11/56/39 33/67/28
f 27/59/23 34/38/31 8/37/30
f 27/59/23 26/68/12 34/38/31
f 26/69/12 7/34/27 34/70/31
f 29/29/24 35/71/34 9/62/33
f 29/29/24 28/20/15 35/71/34
f 28/20/15 8/37/30 35/71/34
f 31/65/25 36/44/37 10/43/36
f 31/65/25 30/72/18 36/44/37
f 30/72/18 9/73/33 36/44/37
f 23/33/26 37/74/40 11/56/39
f 23/33/26 32/32/21 37/74/40
f 32/64/21 10/43/36 37/75/40
f 39/36/29 38/48/41 12/76/42
f 39/36/29 33/35/28 38/48/41
f 33/35/28 11/46/39 38/48/41
f 40/77/32 39/36/29 12/76/42
f 40/77/32 34/70/31 39/36/29
f 34/70/31 7/34/27 39/36/29
f 41/78/35 40/79/32 12/80/42
f 41/42/35 35/41/34 40/81/32
f 35/41/34 8/82/30 40/81/32
f 42/83/38 41/78/35 12/80/42
f 42/84/38 36/85/37 41/42/35
f 36/85/37 9/40/33 41/42/35
f 38/48/41 42/86/38 12/76/42
f 38/48/41 37/47/40 42/86/38
f 37/75/40 10/43/36 42/45/38
