# Blender v2.66 (sub 0) OBJ File: 'kiwi.blend'
# www.blender.org
mtllib kiwi_leg_2.mtl
o Cylinder.001
v 0.000000 0.453156 0.085979
v 0.000000 0.017045 0.065476
v 0.000000 0.453156 0.065476
v 0.007846 0.017045 0.067037
v 0.007846 0.453156 0.067037
v 0.014498 0.017045 0.071481
v 0.014498 0.453156 0.071481
v 0.018942 0.017045 0.078133
v 0.018942 0.453156 0.078133
v 0.020503 0.017045 0.085979
v 0.020503 0.453156 0.085979
v 0.018942 0.017045 0.093825
v 0.018942 0.453156 0.093825
v 0.014498 0.017045 0.100477
v 0.014498 0.453156 0.100477
v 0.007846 0.017045 0.104921
v 0.007846 0.453156 0.104921
v 0.000000 0.017045 0.106482
v 0.000000 0.453156 0.106482
v -0.007846 0.017045 0.104921
v -0.007846 0.453156 0.104921
v -0.014498 0.017045 0.100477
v -0.014498 0.453156 0.100477
v -0.018942 0.017045 0.093825
v -0.018942 0.453156 0.093825
v -0.020503 0.017045 0.085979
v -0.020503 0.453156 0.085979
v -0.018942 0.017045 0.078133
v -0.018942 0.453156 0.078133
v -0.014498 0.017045 0.071481
v -0.014498 0.453156 0.071481
v -0.007846 0.017045 0.067037
v -0.007846 0.453156 0.067037
v -0.076545 0.007409 0.092154
v -0.076961 0.006051 0.063471
v -0.069979 0.008708 0.066294
v -0.063996 0.005065 0.073054
v -0.059924 0.002875 0.082723
v -0.058382 0.002470 0.093827
v -0.059605 0.003914 0.104676
v -0.063407 0.006985 0.113619
v -0.069209 0.011217 0.119295
v -0.076128 0.008767 0.120838
v -0.083111 0.013308 0.118015
v -0.089093 0.016951 0.111254
v -0.093166 0.019141 0.101586
v -0.094708 0.019546 0.090482
v -0.093485 0.018102 0.079633
v -0.089683 0.015031 0.070689
v -0.083880 0.010799 0.065014
vt 0.390285 0.924917
vt 0.405440 0.922752
vt 0.257587 0.967382
vt 0.652475 0.509224
vt 0.692485 0.517147
vt 0.686406 0.531856
vt 0.272976 0.066005
vt 0.288589 0.063516
vt 0.629535 0.314944
vt 0.644168 0.321203
vt 0.635752 0.464762
vt 0.692472 0.501231
vt 0.421053 0.920263
vt 0.302282 0.061081
vt 0.630404 0.282878
vt 0.619010 0.271766
vt 0.638277 0.124468
vt 0.686370 0.486533
vt 0.561817 0.061081
vt 0.564479 0.928718
vt 0.553225 0.928753
vt 0.660081 0.321385
vt 0.656095 0.469211
vt 0.675107 0.475288
vt 0.550563 0.061115
vt 0.538521 0.928798
vt 0.612735 0.257145
vt 0.612864 0.100885
vt 0.660399 0.469211
vt 0.535859 0.061161
vt 0.522605 0.928847
vt 0.686821 0.270958
vt 0.675713 0.282338
vt 0.701662 0.127496
vt 0.644485 0.469225
vt 0.519944 0.061209
vt 0.507901 0.928892
vt 0.674853 0.315464
vt 0.699165 0.461795
vt 0.629787 0.475328
vt 0.437408 0.928926
vt 0.434746 0.061289
vt 0.446000 0.061255
vt 0.692723 0.256191
vt 0.716899 0.118526
vt 0.618543 0.486592
vt 0.448662 0.928892
vt 0.460704 0.061209
vt 0.727895 0.288789
vt 0.726359 0.304021
vt 0.724412 0.439565
vt 0.612464 0.501301
vt 0.463366 0.928846
vt 0.479282 0.928798
vt 0.661091 0.288600
vt 0.681369 0.131775
vt 0.612477 0.517216
vt 0.476620 0.061161
vt 0.493986 0.928752
vt 0.686234 0.304339
vt 0.715335 0.451060
vt 0.618579 0.531915
vt 0.491324 0.061115
vt 0.505240 0.928718
vt 0.612489 0.288789
vt 0.618411 0.303562
vt 0.612464 0.442835
vt 0.629842 0.543159
vt 0.609803 0.061081
vt 0.612464 0.928718
vt 0.595099 0.061126
vt 0.645181 0.288789
vt 0.659112 0.130711
vt 0.644550 0.549237
vt 0.597760 0.928763
vt 0.579183 0.061175
vt 0.692491 0.289706
vt 0.660464 0.549223
vt 0.581845 0.928812
vt 0.564479 0.061220
vt 0.675162 0.543120
vt 0.377895 0.926427
vt 0.245431 0.069680
vt 0.257821 0.068169
vt 0.668768 0.096172
vt 0.725071 0.105719
vt 0.622037 0.113994
vt 0.612464 0.086625
vt 0.620327 0.074330
vt 0.635565 0.065360
vt 0.655857 0.061081
vt 0.678115 0.062144
vt 0.698949 0.068388
vt 0.715189 0.078862
vt 0.724362 0.091971
vt 0.242805 0.959946
vt 0.434746 0.917828
vt 0.678363 0.468169
vt 0.505240 0.061254
vt 0.727898 0.453401
vt 0.502578 0.061081
vt 0.620431 0.455500
vt 0.724412 0.437597
vt 0.567141 0.928857
vn -0.265694 0.536973 -0.800653
vn 0.050111 -0.449751 -0.891720
vn -0.121311 -0.683370 -0.719901
vn 0.000000 1.000000 0.000000
vn 0.285531 0.665700 -0.689383
vn 0.000000 0.665700 -0.746178
vn -0.465072 0.753136 0.465255
vn -0.600238 0.757256 0.257393
vn -0.818018 0.237922 0.523637
vn 0.527635 0.665700 -0.527635
vn 0.333323 -0.564989 -0.754753
vn 0.742119 -0.597980 0.302713
vn 0.578600 -0.585070 0.568224
vn -0.040651 -0.971831 0.232063
vn 0.689383 0.665700 -0.285531
vn 0.576189 -0.590350 -0.565203
vn -0.647847 0.761711 -0.003906
vn -0.909268 0.314982 0.272011
vn 0.746178 0.665700 0.000000
vn 0.739525 -0.601245 -0.302622
vn 0.324992 -0.593768 0.736045
vn -0.066408 -0.856716 -0.511460
vn 0.689383 0.665700 0.285531
vn 0.797601 -0.603137 -0.001129
vn -0.106510 -0.945463 -0.307718
vn 0.527635 0.665700 0.527635
vn -0.609333 0.747185 -0.265267
vn -0.919950 0.282510 -0.271737
vn 0.285531 0.665700 0.689383
vn 0.099429 -0.984344 0.145451
vn 0.000000 0.665700 0.746178
vn 0.091586 -0.017304 0.995636
vn -0.285531 0.665700 0.689383
vn -0.252419 0.656941 0.710379
vn -0.049501 -0.991485 -0.120304
vn -0.527635 0.665700 0.527635
vn -0.474776 0.737754 -0.479873
vn -0.828578 0.158391 -0.536943
vn -0.689383 0.665700 0.285531
vn -0.019776 -0.485580 0.873959
vn -0.746178 0.665700 0.000000
vn -0.026673 -0.998321 0.050905
vn -0.689383 0.665700 -0.285531
vn -0.527635 0.665700 -0.527635
vn -0.285531 0.665700 -0.689383
vn -0.393689 -0.918088 0.045289
vn -0.066561 -0.881375 0.467666
vn -0.630940 0.047151 0.774377
vn -0.944609 0.328104 0.000855
vn -0.631825 -0.111759 -0.766991
usemtl leg
s 1
f 32/1/1 2/2/2 35/3/3
f 1/4/4 5/5/5 3/6/6
f 2/2/2 3/7/6 5/8/5
f 22/9/7 24/10/8 45/11/9
f 1/4/4 7/12/10 5/5/5
f 4/13/11 5/8/5 7/14/10
f 12/15/12 14/16/13 40/17/14
f 1/4/4 9/18/15 7/12/10
f 6/19/16 7/20/10 9/21/15
f 24/10/8 26/22/17 46/23/18
f 1/4/4 11/24/19 9/18/15
f 8/25/20 9/21/15 11/26/19
f 14/16/13 16/27/21 42/28/22
f 1/4/4 13/29/23 11/24/19
f 10/30/24 11/26/19 13/31/23
f 4/32/11 6/33/16 37/34/25
f 1/4/4 15/35/26 13/29/23
f 12/36/12 13/31/23 15/37/26
f 26/22/17 28/38/27 48/39/28
f 1/4/4 17/40/29 15/35/26
f 14/41/13 15/42/26 17/43/29
f 2/44/2 4/32/11 36/45/30
f 1/4/4 19/46/31 17/40/29
f 16/47/21 17/43/29 19/48/31
f 16/49/21 18/50/32 42/51/22
f 1/4/4 21/52/33 19/46/31
f 18/53/32 19/48/31 20/54/34
f 6/33/16 8/55/20 38/56/35
f 1/4/4 23/57/36 21/52/33
f 20/54/34 21/58/33 22/59/7
f 28/38/27 30/60/37 49/61/38
f 1/4/4 25/62/39 23/57/36
f 22/59/7 23/63/36 24/64/8
f 18/65/32 20/66/34 43/67/40
f 1/4/4 27/68/41 25/62/39
f 24/69/8 25/70/39 26/71/17
f 8/55/20 10/72/24 39/73/42
f 1/4/4 29/74/43 27/68/41
f 26/71/17 27/75/41 28/76/27
f 30/60/37 32/77/1 49/61/38
f 1/4/4 31/78/44 29/74/43
f 28/76/27 29/79/43 30/80/37
f 20/66/34 22/9/7 45/11/9
f 1/4/4 33/81/45 31/78/44
f 30/82/37 31/83/44 32/1/1
f 10/72/24 12/15/12 39/73/42
f 1/4/4 3/6/6 33/81/45
f 32/1/1 33/84/45 2/2/2
f 34/85/46 35/86/3 36/45/30
f 34/85/46 36/45/30 37/34/25
f 34/85/46 37/34/25 38/56/35
f 34/85/46 38/56/35 39/73/42
f 34/85/46 39/73/42 40/17/14
f 34/85/46 40/17/14 41/87/47
f 34/85/46 41/87/47 42/28/22
f 34/85/46 42/28/22 43/88/40
f 34/85/46 43/88/40 44/89/48
f 34/85/46 44/89/48 45/90/9
f 34/85/46 45/90/9 46/91/18
f 34/85/46 46/91/18 47/92/49
f 34/85/46 47/92/49 48/93/28
f 34/85/46 48/93/28 49/94/38
f 34/85/46 49/94/38 50/95/50
f 34/85/46 50/95/50 35/86/3
f 50/96/50 32/1/1 35/3/3
f 4/13/11 2/2/2 5/8/5
f 24/10/8 46/23/18 45/11/9
f 6/97/16 4/13/11 7/14/10
f 14/16/13 41/87/47 40/17/14
f 8/25/20 6/19/16 9/21/15
f 26/22/17 47/98/49 46/23/18
f 10/30/24 8/25/20 11/26/19
f 41/87/47 14/16/13 42/28/22
f 12/36/12 10/30/24 13/31/23
f 36/45/30 4/32/11 37/34/25
f 14/99/13 12/36/12 15/37/26
f 47/98/49 26/22/17 48/39/28
f 16/47/21 14/41/13 17/43/29
f 35/86/3 2/44/2 36/45/30
f 18/53/32 16/47/21 19/48/31
f 18/50/32 43/100/40 42/51/22
f 19/48/31 21/58/33 20/54/34
f 37/34/25 6/33/16 38/56/35
f 21/58/33 23/63/36 22/59/7
f 48/39/28 28/38/27 49/61/38
f 23/63/36 25/101/39 24/64/8
f 20/66/34 44/102/48 43/67/40
f 25/70/39 27/75/41 26/71/17
f 38/56/35 8/55/20 39/73/42
f 27/75/41 29/79/43 28/76/27
f 32/77/1 50/103/50 49/61/38
f 29/79/43 31/104/44 30/80/37
f 44/102/48 20/66/34 45/11/9
f 31/83/44 33/84/45 32/1/1
f 12/15/12 40/17/14 39/73/42
f 33/84/45 3/7/6 2/2/2
