# Blender v2.66 (sub 1) OBJ File: 'tree_1.blend'
# www.blender.org
mtllib tree_4_top.mtl
o Icosphere
v 0.000000 4.692450 0.000000
v 2.185808 5.329810 1.508385
v -0.789832 5.444635 2.197697
v -2.402586 5.413906 -0.151550
v -0.711090 5.431859 -2.188546
v 1.861693 5.431859 -1.352584
v 0.527102 6.660245 2.170230
v -1.583170 6.677991 1.201409
v -1.960184 6.618269 -1.513122
v 0.711090 6.628278 -2.188546
v 2.301175 6.628273 0.000000
v 0.080752 7.271660 0.232393
v 1.387214 5.075778 0.739819
v 0.526991 5.355523 1.424523
v -0.417965 4.892217 1.286385
v 1.171370 4.991358 -0.738665
v 1.880144 5.485649 -0.117120
v -1.967021 5.612537 1.354491
v -1.352595 4.892220 0.000000
v -1.770570 5.326834 -1.286390
v -0.417965 4.892217 -1.286385
v 0.498727 5.473426 -1.795513
v 2.446877 6.030068 -0.795026
v 2.619008 5.867609 0.643378
v 1.606597 5.809874 1.991318
v -0.007940 6.005653 2.640908
v -1.512252 6.030068 2.081434
v -2.074237 6.170953 0.533161
v -2.446877 6.030068 -0.795026
v -1.960592 6.163744 -2.543661
v -0.086119 6.016085 -2.741441
v 1.553220 5.981096 -2.801060
v 1.696543 6.703751 1.338224
v -0.758081 6.928905 2.185724
v -2.188543 6.733303 0.000000
v -1.231011 6.770055 -2.050734
v 1.627870 6.907367 -1.387988
v 1.147727 7.083971 0.360742
v 0.314887 7.024119 0.843522
v -0.953600 6.983591 0.563911
v -0.807219 6.920422 -0.241518
v 0.484678 7.195070 -1.549299
vt 0.882029 0.672162
vt 0.738868 0.636801
vt 0.885400 0.561698
vt 0.385442 0.817602
vt 0.311727 0.817648
vt 0.333712 0.710865
vt 0.972536 0.605200
vt 0.650143 0.493948
vt 0.643306 0.612316
vt 0.556869 0.547044
vt 0.556061 0.406209
vt 0.461317 0.000000
vt 0.542038 0.119176
vt 0.443724 0.098943
vt 0.864428 0.438523
vt 0.777701 0.538272
vt 0.758898 0.381523
vt 0.234041 0.115780
vt 0.260538 0.252922
vt 0.146362 0.227183
vt 0.442962 0.589658
vt 0.521529 0.668574
vt 0.349674 0.710419
vt 0.458201 0.360095
vt 0.445079 0.482269
vt 0.311727 0.410378
vt 0.381059 0.042324
vt 0.880051 0.360279
vt 0.117840 0.108883
vt 0.332029 0.550373
vt 0.621859 0.184466
vt 0.644982 0.338165
vt 0.511214 0.204536
vt 0.184697 0.519158
vt 0.271190 0.608611
vt 0.137451 0.641241
vt 0.094284 0.324375
vt 0.090669 0.436131
vt 0.020756 0.313860
vt 0.869358 0.220511
vt 0.906459 0.107663
vt 0.980383 0.197423
vt 0.753489 0.134639
vt 0.735922 0.303071
vt 0.645275 0.159679
vt 0.311727 0.721897
vt 0.229778 0.836042
vt 0.198760 0.697781
vt 0.650143 0.592882
vt 0.645275 0.117890
vt 0.545385 0.036811
vt 0.778567 0.724931
vt 0.311656 0.118167
vt 0.953308 0.430384
vt 0.584738 0.710865
vt 0.393915 0.230669
vt 0.655290 0.495209
vt 0.676322 0.360095
vt 0.224225 0.347427
vt 0.311727 0.334433
vt 0.027559 0.000000
vt 0.000000 0.108078
vt 0.199537 0.041289
vt 0.869358 0.055206
vt 0.869184 0.196319
vt 0.311696 0.505747
vt 0.311727 0.178727
vt 0.241323 0.425971
vt 0.175559 0.436131
vt 0.066244 0.509957
vt 0.042810 0.223037
vt 0.847884 0.358685
vt 0.738019 0.360095
vt 0.449525 0.360095
vt 0.674660 0.055756
vt 0.100706 0.699460
vt 0.031937 0.638861
vt 0.580264 0.775422
vt 0.585552 0.710865
vt 0.650143 0.717460
vt 0.998289 0.136217
vt 0.999779 0.051329
vt 0.650040 0.858663
vt 1.000000 0.360095
vt 0.888629 0.298233
vt 0.120456 0.844504
vn 0.047426 -0.998840 0.007294
vn 0.278909 -0.952300 0.123692
vn -0.031983 -0.921232 0.387646
vn 0.644215 -0.561235 0.519578
vn 0.587237 -0.805200 -0.082339
vn -0.328227 -0.943876 0.035920
vn -0.029908 -0.932371 -0.360210
vn 0.328501 -0.923521 -0.197943
vn 0.980102 -0.137852 0.142735
vn -0.195105 -0.675802 0.710746
vn 0.171575 -0.807123 0.564867
vn 0.099612 -0.182806 0.978088
vn -0.873531 -0.483139 0.059023
vn -0.824610 -0.353465 0.441603
vn -0.918760 0.220710 0.327342
vn -0.077761 -0.789483 -0.608783
vn -0.519028 -0.788202 -0.330607
vn -0.624683 0.034822 -0.780084
vn 0.551195 -0.784295 -0.284646
vn 0.137150 -0.856258 -0.497971
vn 0.455611 -0.108615 -0.883511
vn 0.456404 -0.169622 0.873440
vn -0.688009 0.027589 0.725150
vn -0.987091 0.008423 -0.159764
vn 0.015595 -0.092593 -0.995575
vn 0.966033 -0.097995 -0.238990
vn 0.291208 0.702597 0.649220
vn 0.513993 0.730186 0.450087
vn 0.066469 0.961974 0.264840
vn -0.650349 0.699118 0.297037
vn -0.250435 0.759636 0.600116
vn -0.213416 0.975860 0.045717
vn -0.583911 0.790124 -0.186254
vn -0.723746 0.677725 0.129612
vn -0.234138 0.967925 -0.090976
vn 0.103549 0.747887 -0.655690
vn -0.190802 0.878628 -0.437666
vn 0.053407 0.943144 -0.327982
vn 0.724754 0.688803 0.016114
vn 0.509964 0.805628 -0.301462
vn 0.241585 0.960418 0.138462
vn -0.075442 0.989227 0.125431
usemtl leaves
s 1
f 1/1/1 13/2/2 15/3/3
f 2/4/4 13/5/2 17/6/5
f 1/1/1 15/3/3 19/7/6
f 1/8/1 19/9/6 21/10/7
f 1/8/1 21/10/7 16/11/8
f 2/12/4 17/13/5 24/14/9
f 3/15/10 14/16/11 26/17/12
f 4/18/13 18/19/14 28/20/15
f 5/21/16 20/22/17 30/23/18
f 6/24/19 22/25/20 32/26/21
f 2/12/4 24/14/9 25/27/22
f 3/15/10 26/17/12 27/28/23
f 4/18/13 28/20/15 29/29/24
f 5/21/16 30/23/18 31/30/25
f 6/31/19 32/32/21 23/33/26
f 7/34/27 33/35/28 39/36/29
f 8/37/30 34/38/31 40/39/32
f 9/40/33 35/41/34 41/42/35
f 10/43/36 36/44/37 42/45/38
f 11/46/39 37/47/40 38/48/41
f 15/3/3 14/16/11 3/15/10
f 15/3/3 13/2/2 14/16/11
f 13/2/2 2/49/4 14/16/11
f 17/13/5 16/50/8 6/31/19
f 17/13/5 13/51/2 16/50/8
f 13/2/2 1/1/1 16/52/8
f 19/53/6 18/19/14 4/18/13
f 19/7/6 15/3/3 18/54/14
f 15/3/3 3/15/10 18/54/14
f 21/10/7 20/22/17 5/21/16
f 21/10/7 19/9/6 20/22/17
f 19/9/6 4/55/13 20/22/17
f 16/11/8 22/25/20 6/24/19
f 16/11/8 21/10/7 22/25/20
f 21/10/7 5/21/16 22/25/20
f 24/14/9 23/33/26 11/56/39
f 24/14/9 17/13/5 23/33/26
f 17/13/5 6/31/19 23/33/26
f 26/17/12 25/57/22 7/58/27
f 26/17/12 14/16/11 25/57/22
f 14/16/11 2/49/4 25/57/22
f 28/20/15 27/59/23 8/37/30
f 28/20/15 18/19/14 27/59/23
f 18/19/14 3/60/10 27/59/23
f 30/61/18 29/29/24 9/62/33
f 30/61/18 20/63/17 29/29/24
f 20/63/17 4/18/13 29/29/24
f 32/64/21 31/65/25 10/43/36
f 32/26/21 22/25/20 31/30/25
f 22/25/20 5/21/16 31/30/25
f 25/66/22 33/35/28 7/34/27
f 25/27/22 24/14/9 33/67/28
f 24/14/9 11/56/39 33/67/28
f 27/59/23 34/38/31 8/37/30
f 27/59/23 26/68/12 34/38/31
f 26/69/12 7/34/27 34/70/31
f 29/29/24 35/71/34 9/62/33
f 29/29/24 28/20/15 35/71/34
f 28/20/15 8/37/30 35/71/34
f 31/65/25 36/44/37 10/43/36
f 31/65/25 30/72/18 36/44/37
f 30/72/18 9/73/33 36/44/37
f 23/33/26 37/74/40 11/56/39
f 23/33/26 32/32/21 37/74/40
f 32/64/21 10/43/36 37/75/40
f 39/36/29 38/48/41 12/76/42
f 39/36/29 33/35/28 38/48/41
f 33/35/28 11/46/39 38/48/41
f 40/77/32 39/36/29 12/76/42
f 40/77/32 34/70/31 39/36/29
f 34/70/31 7/34/27 39/36/29
f 41/78/35 40/79/32 12/80/42
f 41/42/35 35/41/34 40/81/32
f 35/41/34 8/82/30 40/81/32
f 42/83/38 41/78/35 12/80/42
f 42/84/38 36/85/37 41/42/35
f 36/85/37 9/40/33 41/42/35
f 38/48/41 42/86/38 12/76/42
f 38/48/41 37/47/40 42/86/38
f 37/75/40 10/43/36 42/45/38
