# Blender v2.66 (sub 1) OBJ File: 'tree_1.blend'
# www.blender.org
mtllib tree_4_trunk.mtl
o Cylinder
v 0.000000 -0.354383 -0.368188
v 0.000000 5.175015 -0.208290
v 0.140900 -0.354383 -0.340162
v 0.079709 5.175015 -0.192435
v 0.260348 -0.354383 -0.260348
v 0.147283 5.175015 -0.147283
v 0.340162 -0.354383 -0.140900
v 0.192435 5.175015 -0.079709
v 0.368188 -0.354383 0.000000
v 0.208290 5.175015 0.000000
v 0.340162 -0.354383 0.140900
v 0.192435 5.175015 0.079709
v 0.260348 -0.354383 0.260348
v 0.147283 5.175015 0.147283
v 0.140900 -0.354383 0.340162
v 0.079709 5.175015 0.192435
v 0.000000 -0.354383 0.368188
v 0.000000 5.175015 0.208290
v -0.140899 -0.354383 0.340162
v -0.079709 5.175015 0.192435
v -0.260348 -0.354383 0.260349
v -0.147283 5.175015 0.147283
v -0.340162 -0.354383 0.140900
v -0.192434 5.175015 0.079709
v -0.368188 -0.354383 -0.000000
v -0.208290 5.175015 -0.000000
v -0.340162 -0.354383 -0.140900
v -0.192434 5.175015 -0.079709
v -0.260348 -0.354383 -0.260349
v -0.147283 5.175015 -0.147283
v -0.140899 -0.354383 -0.340162
v -0.079709 5.175015 -0.192435
v 0.000000 0.181345 -0.286727
v 0.105091 0.974570 -0.216201
v 0.341544 4.200659 -0.200451
v 0.418253 4.200659 -0.185193
v 0.187827 0.974570 -0.199744
v 0.109726 0.181345 -0.264901
v 0.483284 4.200659 -0.141740
v 0.257968 0.974570 -0.152877
v 0.202747 0.181345 -0.202747
v 0.526737 4.200659 -0.076709
v 0.304834 0.974570 -0.082737
v 0.264901 0.181345 -0.109726
v 0.541995 4.200659 0.000000
v 0.321292 1.080263 0.000000
v 0.286727 0.287039 0.000000
v 0.526737 4.200659 0.076709
v 0.304834 1.080263 0.082737
v 0.264901 0.287039 0.109726
v 0.483284 4.200659 0.141740
v 0.257968 1.080263 0.152877
v 0.202747 0.287039 0.202747
v 0.418253 4.200659 0.185193
v 0.187827 1.080263 0.199744
v 0.109726 0.287039 0.264901
v 0.341544 4.200659 0.200451
v 0.105091 1.080263 0.216201
v 0.000000 0.287039 0.286727
v 0.264835 4.200659 0.185193
v 0.022354 1.080263 0.199744
v -0.109726 0.287039 0.264901
v 0.199804 4.200659 0.141740
v -0.047787 1.080263 0.152877
v -0.202747 0.287039 0.202747
v 0.156351 4.200659 0.076709
v -0.094653 1.080263 0.082737
v -0.264901 0.287039 0.109726
v 0.141093 4.200659 -0.000000
v -0.111111 1.080263 -0.000000
v -0.286727 0.287039 -0.000000
v 0.156351 4.200659 -0.076709
v -0.094653 0.974570 -0.082737
v -0.264901 0.181345 -0.109726
v 0.199804 4.200659 -0.141740
v -0.047787 0.974570 -0.152877
v -0.202747 0.181345 -0.202747
v 0.264835 4.200659 -0.185193
v 0.022354 0.974570 -0.199744
v -0.109726 0.181345 -0.264901
v -0.420362 3.142811 -0.205701
v -0.315271 2.019281 -0.210951
v -0.234544 2.019281 -0.194893
v -0.341644 3.142811 -0.190043
v -0.166106 2.019281 -0.149165
v -0.274909 3.142811 -0.145453
v -0.120378 2.019281 -0.080728
v -0.230319 3.142811 -0.078718
v -0.104320 2.089744 -0.000000
v -0.214661 3.178042 0.000000
v -0.120378 2.089744 0.080728
v -0.230319 3.178042 0.078718
v -0.166106 2.089744 0.149165
v -0.274909 3.178042 0.145453
v -0.234544 2.089744 0.194893
v -0.341644 3.178042 0.190043
v -0.315271 2.089744 0.210951
v -0.420362 3.178042 0.205701
v -0.395999 2.089744 0.194893
v -0.499080 3.178042 0.190043
v -0.464436 2.089744 0.149165
v -0.565815 3.178042 0.145453
v -0.510165 2.089744 0.080728
v -0.610405 3.178042 0.078718
v -0.526223 2.089744 -0.000000
v -0.626063 3.178042 -0.000000
v -0.510165 2.019281 -0.080728
v -0.610405 3.142811 -0.078718
v -0.464436 2.019281 -0.149165
v -0.565815 3.142811 -0.145453
v -0.395999 2.019281 -0.194894
v -0.499080 3.142811 -0.190043
vt 0.538890 0.784831
vt 0.542677 0.984936
vt 0.530700 0.984397
vt 0.527364 0.784312
vt 0.515167 0.984223
vt 0.512416 0.784145
vt 0.498443 0.984440
vt 0.496321 0.784354
vt 0.483074 0.985015
vt 0.320955 0.785044
vt 0.322910 0.985235
vt 0.309571 0.784466
vt 0.311081 0.984635
vt 0.294698 0.784180
vt 0.295627 0.984337
vt 0.278601 0.784229
vt 0.278900 0.984389
vt 0.263730 0.784607
vt 0.263448 0.984781
vt 0.251623 0.985454
vt 0.620737 0.784607
vt 0.621019 0.984781
vt 0.605566 0.984389
vt 0.605866 0.784229
vt 0.588840 0.984337
vt 0.589769 0.784180
vt 0.573386 0.984635
vt 0.423846 0.784907
vt 0.422303 0.985016
vt 0.409056 0.784354
vt 0.406934 0.984441
vt 0.392961 0.784145
vt 0.660475 0.250726
vt 0.648647 0.238898
vt 0.675928 0.257127
vt 0.378013 0.784312
vt 0.374677 0.984398
vt 0.366487 0.784831
vt 0.390210 0.984223
vt 0.653561 0.056615
vt 0.674468 0.035707
vt 0.642246 0.083931
vt 0.558046 0.025652
vt 0.545578 0.136439
vt 0.529091 0.135698
vt 0.535747 0.310825
vt 0.537842 0.626829
vt 0.526014 0.626297
vt 0.536875 0.024700
vt 0.507709 0.135459
vt 0.523315 0.310267
vt 0.510675 0.626125
vt 0.509419 0.024393
vt 0.484687 0.135758
vt 0.507192 0.310086
vt 0.494159 0.626340
vt 0.479856 0.024776
vt 0.452689 0.025793
vt 0.489833 0.310311
vt 0.463797 0.158263
vt 0.479069 0.634146
vt 0.347331 0.025980
vt 0.333796 0.158346
vt 0.317512 0.157518
vt 0.322262 0.332634
vt 0.309983 0.332010
vt 0.321391 0.634241
vt 0.326420 0.024918
vt 0.296238 0.157109
vt 0.293942 0.331702
vt 0.309708 0.633648
vt 0.299102 0.024393
vt 0.273213 0.157180
vt 0.276580 0.331755
vt 0.294446 0.633354
vt 0.269535 0.024483
vt 0.251942 0.157720
vt 0.260541 0.332162
vt 0.277927 0.633404
vt 0.242221 0.025176
vt 0.221317 0.026367
vt 0.235663 0.158647
vt 0.262667 0.633792
vt 0.250989 0.634457
vt 0.642246 0.025176
vt 0.632525 0.157720
vt 0.614932 0.024483
vt 0.623926 0.332162
vt 0.611254 0.157180
vt 0.621800 0.633792
vt 0.606539 0.633404
vt 0.585365 0.024393
vt 0.607886 0.331755
vt 0.588228 0.157109
vt 0.590021 0.633354
vt 0.558046 0.024918
vt 0.590525 0.331702
vt 0.566954 0.157518
vt 0.574758 0.633647
vt 0.441580 0.158263
vt 0.425521 0.024776
vt 0.431230 0.332622
vt 0.420690 0.135758
vt 0.426308 0.634146
vt 0.411218 0.626340
vt 0.395959 0.024393
vt 0.415544 0.310311
vt 0.398185 0.310086
vt 0.368502 0.024700
vt 0.376286 0.135698
vt 0.347331 0.025652
vt 0.382062 0.310267
vt 0.369630 0.310826
vt 0.379363 0.626297
vt 0.397668 0.135459
vt 0.394702 0.626125
vt 0.536795 0.468827
vt 0.524665 0.468282
vt 0.508933 0.468106
vt 0.491996 0.468326
vt 0.474147 0.332622
vt 0.476608 0.483384
vt 0.321826 0.483437
vt 0.309846 0.482829
vt 0.294194 0.482528
vt 0.277254 0.482580
vt 0.261604 0.482977
vt 0.249628 0.483659
vt 0.622863 0.482977
vt 0.607213 0.482580
vt 0.590273 0.482528
vt 0.574621 0.482829
vt 0.428769 0.483384
vt 0.413381 0.468326
vt 0.396444 0.468106
vt 0.380712 0.468282
vt 0.368583 0.468827
vt 0.481531 0.784907
vt 0.252350 0.785255
vt 0.574896 0.784466
vt 0.642246 0.223445
vt 0.642246 0.206718
vt 0.648647 0.191265
vt 0.660475 0.179438
vt 0.675928 0.173036
vt 0.692654 0.173036
vt 0.708108 0.179438
vt 0.719935 0.191265
vt 0.726336 0.206718
vt 0.726336 0.223445
vt 0.719935 0.238898
vt 0.708108 0.250726
vt 0.692654 0.257127
vt 0.362701 0.984936
vt 0.701784 0.024393
vt 0.731352 0.024393
vt 0.758668 0.035707
vt 0.779575 0.056615
vt 0.790890 0.083931
vt 0.790890 0.113498
vt 0.779575 0.140815
vt 0.758668 0.161722
vt 0.731352 0.173036
vt 0.701784 0.173036
vt 0.674468 0.161722
vt 0.653561 0.140814
vt 0.642246 0.113498
vt 0.248267 0.332861
vt 0.574483 0.332010
vt 0.359799 0.136439
vt 0.367535 0.626829
vn 0.059420 -0.021882 -0.997986
vn -0.031465 0.657125 -0.753105
vn 0.244819 0.706412 -0.664052
vn 0.428938 -0.081668 -0.899625
vn 0.455855 0.746483 -0.484695
vn 0.728385 -0.116916 -0.675069
vn 0.583422 0.771691 -0.253151
vn 0.923276 -0.137700 -0.358531
vn 0.625538 0.780175 0.000000
vn 0.989441 -0.144841 0.000000
vn 0.922117 -0.140324 0.360485
vn 0.583422 0.771691 0.253151
vn 0.728080 -0.123753 0.674184
vn 0.455855 0.746483 0.484695
vn 0.429426 -0.086886 0.898892
vn 0.244819 0.706412 0.664052
vn 0.060396 -0.023469 0.997894
vn -0.031465 0.657125 0.753105
vn -0.331248 0.607654 0.721793
vn -0.328318 0.053438 0.943022
vn -0.598498 0.567003 0.565905
vn -0.670553 0.115085 0.732871
vn -0.781671 0.541002 0.310221
vn -0.904294 0.148625 0.400128
vn -0.846644 0.532151 0.000000
vn -0.987976 0.154393 -0.003235
vn -0.905545 0.140355 -0.400311
vn -0.781671 0.541002 -0.310221
vn -0.671560 0.108371 -0.732963
vn -0.329295 0.050233 -0.942869
vn -0.331248 0.607654 -0.721793
vn -0.598498 0.567003 -0.565905
vn 0.000000 -0.608631 -0.793420
vn 0.303629 -0.608631 -0.733024
vn -0.303629 -0.608631 -0.733024
vn -0.007843 0.120975 -0.992615
vn 0.374035 0.095950 -0.922422
vn 0.031831 0.055452 -0.997925
vn -0.044160 0.031861 -0.998505
vn 0.341746 -0.090304 -0.935423
vn 0.701041 0.074252 -0.709220
vn 0.406690 0.103549 -0.907651
vn 0.671255 -0.191412 -0.716056
vn 0.561022 -0.608631 -0.561022
vn 0.907071 0.072695 -0.414624
vn 0.714896 0.139073 -0.685232
vn 0.909330 -0.213843 -0.356853
vn 0.733024 -0.608631 -0.303629
vn 0.789178 -0.614093 -0.005860
vn 0.912870 0.092776 -0.397534
vn 0.999786 0.020539 0.000458
vn 0.945647 -0.315104 0.080020
vn 0.921628 0.047029 0.385144
vn 0.965209 0.218268 -0.143834
vn 0.915403 0.165288 0.366985
vn 0.726218 -0.618091 0.300821
vn 0.701651 0.061769 0.709799
vn 0.714682 0.143742 0.684469
vn 0.886044 -0.257729 0.385296
vn 0.555834 -0.618091 0.555834
vn 0.374462 0.083499 0.923460
vn 0.407117 0.106662 0.907102
vn 0.669942 -0.196814 0.715812
vn 0.300821 -0.618091 0.726218
vn -0.007874 0.108554 0.994049
vn 0.032563 0.056185 0.997864
vn 0.340617 -0.092715 0.935606
vn 0.000000 -0.618091 0.786065
vn -0.300821 -0.618091 0.726218
vn -0.385846 0.132878 0.912931
vn -0.045289 0.033662 0.998383
vn -0.413862 0.142491 0.899106
vn -0.555834 -0.618091 0.555834
vn -0.353984 0.000732 0.935240
vn -0.702536 0.152806 0.694998
vn -0.709342 0.213416 0.671743
vn -0.726218 -0.618091 0.300821
vn -0.689261 -0.047365 0.722953
vn -0.912168 0.165807 0.374737
vn -0.899503 0.250313 0.358043
vn -0.786065 -0.618091 0.000000
vn -0.915983 -0.078707 0.393353
vn -0.979583 0.183142 -0.082614
vn -0.951720 0.299936 -0.064974
vn -0.727775 -0.612812 -0.307840
vn -0.971801 -0.167974 0.165349
vn -0.878780 0.167730 -0.446699
vn -0.897122 0.193274 -0.397198
vn -0.561022 -0.608631 -0.561022
vn -0.897183 0.001190 -0.441633
vn -0.689779 -0.043001 -0.722709
vn -0.385174 0.145238 -0.911313
vn -0.354656 0.002747 -0.934965
vn -0.413343 0.137761 -0.900052
vn -0.701132 0.165166 -0.693594
vn -0.709891 0.207617 -0.672994
vn -0.017914 -0.004151 -0.999817
vn 0.365032 0.091769 -0.926420
vn 0.686941 0.173193 -0.705741
vn 0.840999 0.242775 -0.483474
vn 0.972900 0.217811 -0.077456
vn 0.895535 0.233314 0.378857
vn 0.685965 0.178777 0.705313
vn 0.364422 0.094638 0.926389
vn -0.018494 -0.004578 0.999817
vn -0.395306 -0.099216 0.913144
vn -0.704123 -0.173254 0.688589
vn -0.903531 -0.218970 0.368267
vn -0.977081 -0.200323 0.071688
vn -0.935453 -0.254646 -0.245094
vn -0.704611 -0.167760 -0.689444
vn -0.395062 -0.095767 -0.913633
usemtl trunk
s 1
f 35/1/1 2/2/2 4/3/3
f 36/4/4 4/3/3 6/5/5
f 39/6/6 6/5/5 8/7/7
f 42/8/8 8/7/7 10/9/9
f 45/10/10 10/11/9 48/12/11
f 48/12/11 12/13/12 51/14/13
f 51/14/13 14/15/14 54/16/15
f 54/16/15 16/17/16 57/18/17
f 57/18/17 18/19/18 20/20/19
f 60/21/20 20/22/19 22/23/21
f 63/24/22 22/23/21 24/25/23
f 66/26/24 24/25/23 26/27/25
f 69/28/26 26/29/25 72/30/27
f 72/30/27 28/31/28 75/32/29
f 4/33/3 2/34/2 6/35/5
f 78/36/30 32/37/31 35/38/1
f 75/32/29 30/39/32 78/36/30
f 1/40/33 3/41/34 31/42/35
f 1/43/33 33/44/36 38/45/37
f 33/44/36 34/46/38 38/45/37
f 81/47/39 35/1/1 84/48/40
f 3/49/34 38/45/37 41/50/41
f 38/45/37 37/51/42 41/50/41
f 84/48/40 36/4/4 86/52/43
f 5/53/44 41/50/41 44/54/45
f 41/50/41 40/55/46 44/54/45
f 86/52/43 39/6/6 88/56/47
f 7/57/48 44/54/45 9/58/49
f 44/54/45 43/59/50 47/60/51
f 88/56/47 42/8/8 90/61/52
f 9/62/49 47/63/51 50/64/53
f 47/63/51 46/65/54 49/66/55
f 90/67/52 45/10/10 48/12/11
f 11/68/56 50/64/53 53/69/57
f 50/64/53 49/66/55 52/70/58
f 92/71/59 48/12/11 51/14/13
f 13/72/60 53/69/57 56/73/61
f 53/69/57 52/70/58 55/74/62
f 94/75/63 51/14/13 54/16/15
f 15/76/64 56/73/61 59/77/65
f 56/73/61 55/74/62 58/78/66
f 96/79/67 54/16/15 57/18/17
f 17/80/68 59/77/65 19/81/69
f 59/77/65 58/78/66 62/82/70
f 98/83/71 57/18/17 100/84/72
f 19/85/69 62/86/70 21/87/73
f 62/86/70 61/88/74 65/89/75
f 100/90/72 60/21/20 102/91/76
f 21/87/73 65/89/75 23/92/77
f 65/89/75 64/93/78 68/94/79
f 102/91/76 63/24/22 104/95/80
f 23/92/77 68/94/79 25/96/81
f 68/94/79 67/97/82 71/98/83
f 104/95/80 66/26/24 106/99/84
f 25/58/81 71/100/83 27/101/85
f 71/100/83 70/102/86 74/103/87
f 106/104/84 69/28/26 108/105/88
f 27/101/85 74/103/87 29/106/89
f 74/103/87 73/107/90 76/108/91
f 108/105/88 72/30/27 75/32/29
f 31/109/35 80/110/92 1/111/33
f 80/110/92 79/112/93 34/113/38
f 112/114/94 78/36/30 35/38/1
f 29/106/89 77/115/95 31/109/35
f 77/115/95 76/108/91 79/112/93
f 110/116/96 75/32/29 78/36/30
f 34/46/38 82/117/97 83/118/98
f 82/117/97 81/47/39 84/48/40
f 37/51/42 83/118/98 85/119/99
f 83/118/98 84/48/40 86/52/43
f 40/55/46 85/119/99 87/120/100
f 85/119/99 86/52/43 88/56/47
f 43/59/50 87/120/100 46/121/54
f 87/120/100 88/56/47 89/122/101
f 46/65/54 89/123/101 49/66/55
f 89/123/101 90/67/52 91/124/102
f 49/66/55 91/124/102 52/70/58
f 91/124/102 92/71/59 93/125/103
f 52/70/58 93/125/103 55/74/62
f 93/125/103 94/75/63 95/126/104
f 55/74/62 95/126/104 58/78/66
f 95/126/104 96/79/67 97/127/105
f 58/78/66 97/127/105 99/128/106
f 97/127/105 98/83/71 100/84/72
f 61/88/74 99/129/106 101/130/107
f 99/129/106 100/90/72 102/91/76
f 64/93/78 101/130/107 103/131/108
f 101/130/107 102/91/76 104/95/80
f 67/97/82 103/131/108 105/132/109
f 103/131/108 104/95/80 106/99/84
f 70/102/86 105/133/109 73/107/90
f 105/133/109 106/104/84 107/134/110
f 73/107/90 107/134/110 76/108/91
f 107/134/110 108/105/88 109/135/111
f 79/112/93 111/136/112 34/113/38
f 111/136/112 112/114/94 82/137/97
f 76/108/91 109/135/111 79/112/93
f 109/135/111 110/116/96 111/136/112
f 36/4/4 35/1/1 4/3/3
f 39/6/6 36/4/4 6/5/5
f 42/8/8 39/6/6 8/7/7
f 45/138/10 42/8/8 10/9/9
f 10/11/9 12/13/12 48/12/11
f 12/13/12 14/15/14 51/14/13
f 14/15/14 16/17/16 54/16/15
f 16/17/16 18/19/18 57/18/17
f 60/139/20 57/18/17 20/20/19
f 63/24/22 60/21/20 22/23/21
f 66/26/24 63/24/22 24/25/23
f 69/140/26 66/26/24 26/27/25
f 26/29/25 28/31/28 72/30/27
f 28/31/28 30/39/32 75/32/29
f 2/34/2 32/141/31 6/35/5
f 32/141/31 30/142/32 6/35/5
f 30/142/32 28/143/28 6/35/5
f 28/143/28 26/144/25 6/35/5
f 26/144/25 24/145/23 6/35/5
f 24/145/23 22/146/21 6/35/5
f 22/146/21 20/147/19 6/35/5
f 20/147/19 18/148/18 6/35/5
f 18/148/18 16/149/16 6/35/5
f 16/149/16 14/150/14 6/35/5
f 14/150/14 12/151/12 6/35/5
f 12/151/12 10/152/9 8/153/7
f 6/35/5 12/151/12 8/153/7
f 32/37/31 2/154/2 35/38/1
f 30/39/32 32/37/31 78/36/30
f 3/41/34 5/155/44 31/42/35
f 5/155/44 7/156/48 31/42/35
f 7/156/48 9/157/49 31/42/35
f 9/157/49 11/158/56 31/42/35
f 11/158/56 13/159/60 31/42/35
f 13/159/60 15/160/64 31/42/35
f 15/160/64 17/161/68 31/42/35
f 17/161/68 19/162/69 31/42/35
f 19/162/69 21/163/73 31/42/35
f 21/163/73 23/164/77 31/42/35
f 23/164/77 25/165/81 31/42/35
f 25/165/81 27/166/85 29/167/89
f 31/42/35 25/165/81 29/167/89
f 3/49/34 1/43/33 38/45/37
f 34/46/38 37/51/42 38/45/37
f 35/1/1 36/4/4 84/48/40
f 5/53/44 3/49/34 41/50/41
f 37/51/42 40/55/46 41/50/41
f 36/4/4 39/6/6 86/52/43
f 7/57/48 5/53/44 44/54/45
f 40/55/46 43/59/50 44/54/45
f 39/6/6 42/8/8 88/56/47
f 44/54/45 47/60/51 9/58/49
f 43/59/50 46/121/54 47/60/51
f 42/8/8 45/138/10 90/61/52
f 11/68/56 9/62/49 50/64/53
f 50/64/53 47/63/51 49/66/55
f 92/71/59 90/67/52 48/12/11
f 13/72/60 11/68/56 53/69/57
f 53/69/57 50/64/53 52/70/58
f 94/75/63 92/71/59 51/14/13
f 15/76/64 13/72/60 56/73/61
f 56/73/61 53/69/57 55/74/62
f 96/79/67 94/75/63 54/16/15
f 17/80/68 15/76/64 59/77/65
f 59/77/65 56/73/61 58/78/66
f 98/83/71 96/79/67 57/18/17
f 59/77/65 62/82/70 19/81/69
f 58/78/66 61/168/74 62/82/70
f 57/18/17 60/139/20 100/84/72
f 62/86/70 65/89/75 21/87/73
f 61/88/74 64/93/78 65/89/75
f 60/21/20 63/24/22 102/91/76
f 65/89/75 68/94/79 23/92/77
f 64/93/78 67/97/82 68/94/79
f 63/24/22 66/26/24 104/95/80
f 68/94/79 71/98/83 25/96/81
f 67/97/82 70/169/86 71/98/83
f 66/26/24 69/140/26 106/99/84
f 71/100/83 74/103/87 27/101/85
f 70/102/86 73/107/90 74/103/87
f 69/28/26 72/30/27 108/105/88
f 74/103/87 77/115/95 29/106/89
f 77/115/95 74/103/87 76/108/91
f 110/116/96 108/105/88 75/32/29
f 80/110/92 33/170/36 1/111/33
f 33/170/36 80/110/92 34/113/38
f 81/171/39 112/114/94 35/38/1
f 77/115/95 80/110/92 31/109/35
f 80/110/92 77/115/95 79/112/93
f 112/114/94 110/116/96 78/36/30
f 37/51/42 34/46/38 83/118/98
f 83/118/98 82/117/97 84/48/40
f 40/55/46 37/51/42 85/119/99
f 85/119/99 83/118/98 86/52/43
f 43/59/50 40/55/46 87/120/100
f 87/120/100 85/119/99 88/56/47
f 87/120/100 89/122/101 46/121/54
f 88/56/47 90/61/52 89/122/101
f 89/123/101 91/124/102 49/66/55
f 90/67/52 92/71/59 91/124/102
f 91/124/102 93/125/103 52/70/58
f 92/71/59 94/75/63 93/125/103
f 93/125/103 95/126/104 55/74/62
f 94/75/63 96/79/67 95/126/104
f 95/126/104 97/127/105 58/78/66
f 96/79/67 98/83/71 97/127/105
f 61/168/74 58/78/66 99/128/106
f 99/128/106 97/127/105 100/84/72
f 64/93/78 61/88/74 101/130/107
f 101/130/107 99/129/106 102/91/76
f 67/97/82 64/93/78 103/131/108
f 103/131/108 101/130/107 104/95/80
f 70/169/86 67/97/82 105/132/109
f 105/132/109 103/131/108 106/99/84
f 105/133/109 107/134/110 73/107/90
f 106/104/84 108/105/88 107/134/110
f 107/134/110 109/135/111 76/108/91
f 108/105/88 110/116/96 109/135/111
f 111/136/112 82/137/97 34/113/38
f 112/114/94 81/171/39 82/137/97
f 109/135/111 111/136/112 79/112/93
f 110/116/96 112/114/94 111/136/112
