# Blender v2.66 (sub 0) OBJ File: 'terrain.blend'
# www.blender.org
mtllib beach_mid_2.mtl
o Plane_Plane.002
v -746.812012 -12.319445 200.082275
v -699.155762 -11.943346 200.082291
v -649.936951 -11.417009 200.082291
v -599.936951 -10.715387 200.082291
v -792.124451 -12.570322 200.082291
v -834.311951 -12.721010 200.082275
v -872.593201 -12.796556 200.082275
v -906.186951 -12.821970 200.082275
v -834.311951 -8.477579 150.082275
v -792.124512 -8.376841 150.082260
v -872.593140 -8.528223 150.082275
v -906.186951 -8.545435 150.082275
v -934.311951 -8.545885 150.082275
v -934.311951 -12.822283 200.082275
v -746.812012 -8.209330 150.082260
v -699.155762 -7.958398 150.082275
v -649.936951 -7.607370 150.082275
v -599.936951 -7.139573 150.082275
v -349.936951 -5.204477 200.082275
v -399.936981 -6.406755 200.082291
v -449.936981 -7.609079 200.082275
v -499.936981 -8.761339 200.082275
v -549.936951 -9.813478 200.082275
v -449.936951 -5.069093 150.082275
v -399.936981 -4.267793 150.082260
v -499.936951 -5.837068 150.082275
v -549.936951 -6.538354 150.082275
v -349.936951 -3.466555 150.082260
v -984.311951 -12.822840 200.082275
v -956.186951 -12.822528 200.082291
v -992.124451 -12.822916 200.082291
v -996.812012 -12.822962 200.082275
v -999.155701 -12.823000 200.082275
v -999.936951 -12.823008 200.082275
v -999.936951 -12.823015 200.082291
v -992.124451 -8.546801 150.082275
v -996.812012 -8.546868 150.082275
v -999.155762 -8.546907 150.082275
v -999.936951 -8.546923 150.082275
v -999.936951 -8.546923 150.082275
v -984.311951 -8.546679 150.082260
v -972.593262 -8.546495 150.082275
v -956.186951 -8.546236 150.082275
v -972.593201 -12.822702 200.082291
vt -5.079200 -0.973811
vt -4.533935 -0.975476
vt -4.530879 0.017068
vt -4.012039 -0.977070
vt -4.008979 0.015472
vt -3.505721 -0.978618
vt -3.502662 0.013927
vt -3.007194 -0.980139
vt -3.004134 0.012404
vt -5.076140 0.018732
vt -5.655623 -0.972052
vt -5.652565 0.020494
vt -6.270993 -0.970171
vt -6.267935 0.022371
vt -6.933100 -0.968149
vt -6.930042 0.024395
vt -7.649734 -0.965962
vt -11.061533 -0.955544
vt -10.142372 -0.958348
vt -10.139312 0.034195
vt -9.262158 -0.961036
vt -9.259098 0.031507
vt -8.428684 -0.963583
vt -8.425623 0.028963
vt -7.646675 0.026581
vt -11.058473 0.037001
vt -12.011850 -0.952640
vt -1.013083 -0.986228
vt -0.514552 -0.987750
vt -1.010022 0.006317
vt -0.016025 -0.989273
vt -0.511493 0.004792
vt 0.482505 -0.990798
vt -0.012967 0.003269
vt 0.981032 -0.992318
vt 0.485562 0.001748
vt -1.511605 -0.984705
vt -1.508552 0.007838
vt -2.010139 -0.983185
vt -2.007079 0.009360
vt -2.508664 -0.981663
vt -2.505607 0.010882
vt -12.008791 0.039904
vt 0.984090 0.000225
vn -0.003265 0.996460 0.083834
vn -0.001953 0.996399 0.084689
vn -0.002472 0.996429 0.084262
vn -0.000946 0.996368 0.085086
vn -0.001221 0.996368 0.084902
vn -0.000244 0.996338 0.085208
vn -0.000336 0.996338 0.085147
vn 0.000000 0.996338 0.085208
vn -0.004089 0.996521 0.083132
vn -0.004883 0.996582 0.082339
vn -0.006043 0.996643 0.081271
vn -0.006806 0.996734 0.080081
vn -0.008362 0.996857 0.078555
vn -0.009095 0.996979 0.076846
vn -0.011139 0.997131 0.074801
vn -0.011811 0.997284 0.072481
vn -0.018006 0.998810 0.044710
vn -0.017579 0.998444 0.052614
vn -0.021485 0.998566 0.048708
vn -0.016388 0.998047 0.060121
vn -0.020081 0.998199 0.056459
vn -0.014466 0.997650 0.066836
vn -0.017731 0.997803 0.063601
vn -0.014496 0.997436 0.069826
vn -0.022004 0.998901 0.040712
vn -0.019990 0.999023 0.038728
vn -0.988861 -0.008423 0.148412
vn -0.869350 0.492386 0.042085
vn -0.024018 0.999084 0.034700
vn -1.000000 0.000000 0.000000
usemtl Material.001
s 1
f 10/1/1 9/2/2 6/3/3
f 9/2/2 11/4/4 7/5/5
f 11/4/4 12/6/6 8/7/7
f 12/6/6 13/8/8 14/9/8
f 10/1/1 5/10/9 15/11/10
f 15/11/10 1/12/11 16/13/12
f 16/13/12 2/14/13 17/15/14
f 17/15/14 3/16/15 18/17/16
f 25/18/17 24/19/18 21/20/19
f 24/19/18 26/21/20 22/22/21
f 26/21/20 27/23/22 23/24/23
f 27/23/22 18/17/16 4/25/24
f 25/18/17 20/26/25 28/27/26
f 36/28/8 37/29/8 31/30/8
f 37/29/8 38/31/8 32/32/8
f 38/31/8 39/33/8 33/34/8
f 39/33/8 40/35/27 34/36/28
f 36/28/8 31/30/8 41/37/8
f 41/37/8 29/38/8 42/39/8
f 42/39/8 44/40/8 43/41/8
f 43/41/8 30/42/8 13/8/8
f 5/10/9 10/1/1 6/3/3
f 6/3/3 9/2/2 7/5/5
f 7/5/5 11/4/4 8/7/7
f 8/7/7 12/6/6 14/9/8
f 5/10/9 1/12/11 15/11/10
f 1/12/11 2/14/13 16/13/12
f 2/14/13 3/16/15 17/15/14
f 3/16/15 4/25/24 18/17/16
f 20/26/25 25/18/17 21/20/19
f 21/20/19 24/19/18 22/22/21
f 22/22/21 26/21/20 23/24/23
f 23/24/23 27/23/22 4/25/24
f 20/26/25 19/43/29 28/27/26
f 37/29/8 32/32/8 31/30/8
f 38/31/8 33/34/8 32/32/8
f 39/33/8 34/36/28 33/34/8
f 40/35/27 35/44/30 34/36/28
f 31/30/8 29/38/8 41/37/8
f 29/38/8 44/40/8 42/39/8
f 44/40/8 30/42/8 43/41/8
f 30/42/8 14/9/8 13/8/8
