# Blender v2.66 (sub 0) OBJ File: 'terrain.blend'
# www.blender.org
mtllib beach_edge_2.mtl
o Plane_Plane.005
v -746.812012 -17.603327 250.082275
v -792.124512 -17.961481 250.082275
v -746.812012 -12.319445 200.082275
v -699.155762 -17.066248 250.082275
v -699.155762 -11.943346 200.082291
v -649.936951 -16.314470 250.082275
v -649.936951 -11.417009 200.082291
v -599.936951 -15.312221 250.082275
v -599.936951 -10.715387 200.082291
v -834.311951 -18.176477 250.082260
v -872.593140 -18.284105 250.082260
v -906.186951 -18.320139 250.082275
v -792.124451 -12.570322 200.082291
v -834.311951 -12.721010 200.082275
v -872.593201 -12.796556 200.082275
v -906.186951 -12.821970 200.082275
v -934.311951 -18.320345 250.082275
v -934.311951 -12.822283 200.082275
v -349.936981 -7.438562 250.082275
v -399.936981 -9.156383 250.082275
v -349.936951 -5.204477 200.082275
v -449.936981 -10.874232 250.082260
v -499.936951 -12.520534 250.082260
v -549.936951 -14.023723 250.082275
v -399.936981 -6.406755 200.082291
v -449.936981 -7.609079 200.082275
v -499.936981 -8.761339 200.082275
v -549.936951 -9.813478 200.082275
v -984.311951 -18.320711 250.082275
v -992.124451 -18.320765 250.082275
v -984.311951 -12.822840 200.082275
v -972.593262 -18.320627 250.082275
v -956.187012 -18.320505 250.082275
v -956.186951 -12.822528 200.082291
v -996.811951 -18.320795 250.082275
v -999.155640 -18.320826 250.082260
v -999.936951 -18.320826 250.082260
v -992.124451 -12.822916 200.082291
v -996.812012 -12.822962 200.082275
v -999.155701 -12.823000 200.082275
v -999.936951 -12.823008 200.082275
v -999.936951 -12.823015 200.082291
v -972.593201 -12.822702 200.082291
v -999.936951 -18.320826 250.082275
vt -5.073082 1.011276
vt -5.649503 1.013036
vt -5.652565 0.020494
vt -6.264874 1.014915
vt -6.267935 0.022371
vt -6.926981 1.016938
vt -6.930042 0.024395
vt -7.643616 1.019127
vt -7.646675 0.026581
vt -5.076140 0.018732
vt -4.527817 1.009611
vt -4.530879 0.017068
vt -4.005922 1.008017
vt -4.008979 0.015472
vt -3.499606 1.006471
vt -3.502662 0.013927
vt -3.001077 1.004949
vt -11.055414 1.029545
vt -12.005733 1.032447
vt -12.008791 0.039904
vt -11.058473 0.037001
vt -10.136253 1.026739
vt -10.139312 0.034195
vt -9.256042 1.024049
vt -9.259098 0.031507
vt -8.422565 1.021505
vt -8.425623 0.028963
vt -1.006963 0.998859
vt -1.505492 1.000381
vt -1.508552 0.007838
vt -2.004022 1.001903
vt -2.502549 1.003425
vt -2.505607 0.010882
vt -3.004134 0.012404
vt -1.010022 0.006317
vt -0.508433 0.997335
vt -0.511493 0.004792
vt -0.009908 0.995813
vt -0.012967 0.003269
vt 0.485562 0.001748
vt 0.488618 0.994291
vt 0.984090 0.000225
vt -2.007079 0.009360
vt 0.987147 0.992768
vn -0.005890 0.994263 0.106632
vn -0.008698 0.994507 0.104251
vn -0.007202 0.994354 0.105625
vn -0.012055 0.994812 0.100772
vn -0.010041 0.994629 0.102725
vn -0.016053 0.995239 0.095981
vn -0.013398 0.995025 0.098575
vn -0.020875 0.995727 0.089602
vn -0.017426 0.995483 0.093020
vn -0.004852 0.994171 0.107547
vn -0.003571 0.994110 0.108097
vn -0.002899 0.994049 0.108646
vn -0.001740 0.994049 0.108890
vn -0.001404 0.994018 0.109134
vn -0.000458 0.993988 0.109226
vn -0.000366 0.993988 0.109287
vn 0.000000 0.993988 0.109287
vn -0.031709 0.998108 0.052309
vn -0.034272 0.998413 0.044588
vn -0.029145 0.998321 0.049745
vn -0.026551 0.997986 0.057436
vn -0.030976 0.997559 0.062563
vn -0.025941 0.997375 0.067568
vn -0.028932 0.996948 0.072481
vn -0.024201 0.996704 0.077181
vn -0.025544 0.996307 0.081637
vn -0.021363 0.996063 0.085788
vn -0.219916 0.969665 0.106601
vn 0.887875 0.457289 0.050264
vn -1.000000 0.000000 0.000000
vn 1.000000 0.000000 0.000000
usemtl Material.001
s 1
f 2/1/1 1/2/2 3/3/3
f 1/2/2 4/4/4 5/5/5
f 4/4/4 6/6/6 7/7/7
f 6/6/6 8/8/8 9/9/9
f 2/1/1 13/10/10 10/11/11
f 10/11/11 14/12/12 11/13/13
f 11/13/13 15/14/14 12/15/15
f 12/15/15 16/16/16 17/17/17
f 20/18/18 19/19/19 21/20/20
f 20/18/18 25/21/21 22/22/22
f 22/22/22 26/23/23 23/24/24
f 23/24/24 27/25/25 24/26/26
f 24/26/26 28/27/27 8/8/8
f 30/28/17 29/29/17 31/30/17
f 29/29/17 32/31/17 31/30/17
f 32/31/17 33/32/17 34/33/17
f 33/32/17 17/17/17 18/34/17
f 30/28/17 38/35/17 35/36/17
f 35/36/17 39/37/17 36/38/17
f 36/38/17 40/39/17 41/40/28
f 37/41/29 41/40/28 42/42/30
f 13/10/10 2/1/1 3/3/3
f 3/3/3 1/2/2 5/5/5
f 5/5/5 4/4/4 7/7/7
f 7/7/7 6/6/6 9/9/9
f 13/10/10 14/12/12 10/11/11
f 14/12/12 15/14/14 11/13/13
f 15/14/14 16/16/16 12/15/15
f 16/16/16 18/34/17 17/17/17
f 25/21/21 20/18/18 21/20/20
f 25/21/21 26/23/23 22/22/22
f 26/23/23 27/25/25 23/24/24
f 27/25/25 28/27/27 24/26/26
f 28/27/27 9/9/9 8/8/8
f 38/35/17 30/28/17 31/30/17
f 32/31/17 43/43/17 31/30/17
f 43/43/17 32/31/17 34/33/17
f 34/33/17 33/32/17 18/34/17
f 38/35/17 39/37/17 35/36/17
f 39/37/17 40/39/17 36/38/17
f 37/41/29 36/38/17 41/40/28
f 44/44/31 37/41/29 42/42/30
