# Blender v2.66 (sub 0) OBJ File: ''
# www.blender.org
mtllib skybox.mtl
o Cube
v -1499.999268 1500.000000 1499.999146
v -1499.999268 1500.000000 -1499.999268
v 1499.999390 1500.000000 -1499.999023
v 1499.998779 1500.000000 1499.999756
v -1500.000000 -1500.000000 1499.998413
v -1499.998291 -1500.000000 -1500.000122
v 1499.999756 -1500.000000 -1499.998779
v 1499.999146 -1500.000000 1499.999268
vt 1.989983 0.002551
vt 1.000705 0.005586
vt 0.997670 -0.983693
vt -0.986957 0.994864
vt -0.983922 0.005586
vt 0.005356 0.008620
vt -0.986957 -0.983693
vt 0.002322 -0.986728
vt 0.994635 -0.986728
vt 0.997670 0.002550
vt 0.008391 0.005586
vt 0.997670 0.008621
vt 1.986949 0.005586
vt 1.000705 0.997899
vt 0.997670 0.994864
vt 0.008391 0.997899
vt 0.005356 0.008621
vt 1.986949 -0.986728
vt 0.002322 0.997899
vt 0.005357 0.002551
vt 0.005357 -0.983693
vt 1.989983 0.994864
vt 0.994635 0.005586
vn -0.000000 -1.000000 0.000000
vn 0.000000 1.000000 0.000000
vn 1.000000 -0.000000 0.000001
vn -0.000000 -0.000000 1.000000
vn -1.000000 -0.000000 -0.000000
vn 0.000000 0.000000 -1.000000
vn 1.000000 0.000000 0.000000
usemtl Material.001
s off
f 1/1/1 2/2/1 3/3/1
f 5/4/2 8/5/2 7/6/2
f 1/5/3 5/7/3 6/8/3
f 2/9/4 6/10/4 7/11/4
f 3/12/5 7/13/5 4/14/5
f 5/15/6 1/16/6 4/17/6
f 4/18/1 1/1/1 3/3/1
f 6/19/2 5/4/2 7/6/2
f 2/20/7 1/5/7 6/8/7
f 3/21/4 2/9/4 7/11/4
f 7/13/5 8/22/5 4/14/5
f 8/23/6 5/15/6 4/17/6
